<svg id="Слой_1" data-name="Слой 1" xmlns="http://www.w3.org/2000/svg" viewBox="0 0 60.23 35.11"><defs><style>.cls-1{fill:#ccc;}.cls-2{fill:#b8bbb2;}.cls-3{fill:#6d6d69;}.cls-4{fill:#464749;}.cls-5{fill:#e5cd65;}.cls-6{fill:#b26000;}.cls-7{fill:#f3bb44;}.cls-8{fill:#836e1f;}.cls-9{fill:#eae5df;}</style></defs><polygon class="cls-1" points="47.91 1.74 45.02 3.49 42.01 1.75 42.01 1.68 44.89 0 47.91 1.74"/><polygon class="cls-2" points="47.91 2.1 47.91 1.74 45.02 3.41 45.02 3.79 47.91 2.1"/><polygon class="cls-3" points="45.02 3.41 45.02 3.79 42 2.04 42 1.68 45.02 3.41"/><polygon class="cls-1" points="44.91 3.48 42.02 5.23 39 3.49 39 3.42 41.89 1.74 44.91 3.48"/><polygon class="cls-2" points="44.91 3.84 44.91 3.48 42.02 5.15 42.02 5.52 44.91 3.84"/><polygon class="cls-3" points="42.02 5.15 42.02 5.52 39 3.78 39 3.42 42.02 5.15"/><polygon class="cls-1" points="41.91 5.22 39.02 6.97 36 5.23 36 5.16 38.89 3.48 41.91 5.22"/><polygon class="cls-2" points="41.91 5.58 41.91 5.21 39.02 6.89 39.02 7.26 41.91 5.58"/><polygon class="cls-3" points="39.02 6.89 39.02 7.26 36 5.52 36 5.16 39.02 6.89"/><polygon class="cls-1" points="38.91 6.96 36.02 8.71 33 6.96 33 6.89 35.89 5.21 38.91 6.96"/><polygon class="cls-2" points="38.91 7.32 38.91 6.95 36.02 8.63 36.02 9 38.91 7.32"/><polygon class="cls-3" points="36.02 8.63 36.02 9 33 7.26 33 6.89 36.02 8.63"/><polygon class="cls-1" points="35.91 8.7 33.02 10.45 30 8.7 30 8.63 32.89 6.95 35.91 8.7"/><polygon class="cls-2" points="35.91 9.05 35.91 8.69 33.02 10.37 33.02 10.74 35.91 9.05"/><polygon class="cls-3" points="33.02 10.37 33.02 10.74 30 9 30 8.63 33.02 10.37"/><polygon class="cls-1" points="32.91 10.43 30.15 12.05 27.14 10.3 29.89 8.69 32.91 10.43"/><polygon class="cls-3" points="30.15 12.03 30.15 12.4 27.13 10.66 27.13 10.3 30.15 12.03"/><polygon class="cls-1" points="30.04 12.14 27.11 13.92 24.1 12.18 24.1 12.11 27.03 10.4 30.04 12.14"/><polygon class="cls-3" points="27.09 13.84 27.09 14.21 24.08 12.47 24.08 12.11 27.09 13.84"/><polygon class="cls-1" points="26.97 13.88 24.08 15.63 21.06 13.89 21.06 13.82 23.95 12.14 26.97 13.88"/><polygon class="cls-3" points="24.08 15.55 24.08 15.93 21.06 14.18 21.06 13.82 24.08 15.55"/><polygon class="cls-1" points="23.96 15.62 21.08 17.37 18.06 15.63 18.06 15.56 20.95 13.88 23.96 15.62"/><polygon class="cls-3" points="21.08 17.29 21.08 17.66 18.06 15.92 18.06 15.56 21.08 17.29"/><polygon class="cls-4" points="56.77 6.88 41.77 15.57 41.62 15.49 38.6 13.74 37.34 13.01 37.19 12.93 37.11 12.88 37.1 12.88 36.96 12.79 36.96 12.79 35.67 12.05 33.5 10.78 33.35 10.7 48.53 2.12 56.77 6.88"/><polygon class="cls-4" points="56.48 6.71 41.5 15.39 41.48 15.4 37.34 13.01 37.19 12.93 37.11 12.88 36.96 12.79 36.96 12.79 33.6 10.84 33.62 10.83 48.6 2.15 51.96 4.11 51.96 4.11 52.11 4.19 52.19 4.24 52.34 4.33 56.48 6.71"/><polygon class="cls-5" points="52.11 4.19 37.13 12.87 37.11 12.88 37.11 12.88 37.11 12.88 36.96 12.79 36.96 12.79 36.96 12.79 36.98 12.78 51.96 4.11 51.96 4.11 52.11 4.19"/><polygon class="cls-5" points="52.34 4.33 37.36 13 37.34 13.01 37.34 13.02 37.19 12.93 37.19 12.93 37.19 12.93 37.21 12.91 52.19 4.24 52.34 4.33"/><polygon class="cls-6" points="48.34 2.22 33.34 10.91 33.01 10.52 33.02 10.52 33.02 10.52 42.07 5.3 42.07 5.3 42.07 5.3 42.12 5.33 48.34 1.86 48.34 2.22"/><polygon class="cls-7" points="48.34 1.86 33.34 10.55 33.34 10.55 33.02 10.37 33.02 10.36 33.02 10.36 48.02 1.68 48.34 1.86"/><polygon class="cls-8" points="33.02 10.36 33.34 10.55 33.34 10.91 33.02 10.74 33.02 10.36"/><polygon class="cls-6" points="57.15 7.25 42.1 15.97 41.77 15.58 41.77 15.57 41.77 15.57 50.82 10.35 50.83 10.35 50.83 10.35 50.88 10.38 57.07 6.93 57.15 7.25"/><polygon class="cls-7" points="57.1 6.91 42.1 15.6 42.1 15.6 41.77 15.42 41.77 15.42 41.78 15.42 56.77 6.73 57.1 6.91"/><polygon class="cls-8" points="41.77 15.42 42.1 15.6 42.1 15.97 41.77 15.78 41.77 15.42"/><polygon class="cls-1" points="60.01 8.71 57.12 10.46 54.11 8.72 54.11 8.65 56.99 6.97 60.01 8.71"/><polygon class="cls-2" points="60.01 9.07 60.01 8.7 57.12 10.38 57.12 10.75 60.01 9.07"/><polygon class="cls-3" points="57.12 10.38 57.12 10.75 54.11 9.01 54.11 8.65 57.12 10.38"/><polygon class="cls-1" points="57.01 10.45 54.12 12.2 51.1 10.46 51.1 10.39 53.99 8.71 57.01 10.45"/><polygon class="cls-2" points="57.01 10.81 57.01 10.44 54.12 12.12 54.12 12.49 57.01 10.81"/><polygon class="cls-3" points="54.12 12.12 54.12 12.49 51.1 10.75 51.1 10.38 54.12 12.12"/><polygon class="cls-1" points="54.01 12.19 51.12 13.94 48.1 12.19 48.1 12.12 50.99 10.44 54.01 12.19"/><polygon class="cls-2" points="54.01 12.54 54.01 12.18 51.12 13.86 51.12 14.23 54.01 12.54"/><polygon class="cls-3" points="51.12 13.86 51.12 14.23 48.1 12.49 48.1 12.12 51.12 13.86"/><polygon class="cls-1" points="51.01 13.93 48.12 15.67 45.1 13.93 45.1 13.86 47.99 12.18 51.01 13.93"/><polygon class="cls-2" points="51.01 14.28 51.01 13.92 48.12 15.59 48.12 15.97 51.01 14.28"/><polygon class="cls-3" points="48.12 15.59 48.12 15.97 45.1 14.23 45.1 13.86 48.12 15.59"/><polygon class="cls-1" points="48.01 15.66 45.12 17.41 42.1 15.67 42.1 15.6 44.99 13.92 48.01 15.66"/><polygon class="cls-2" points="48.01 16.02 48.01 15.66 45.12 17.33 45.12 17.71 48.01 16.02"/><polygon class="cls-3" points="45.12 17.33 45.12 17.71 42.1 15.96 42.1 15.6 45.12 17.33"/><polygon class="cls-2" points="32.91 10.79 32.91 10.43 30.01 12.16 30.02 12.47 32.91 10.79"/><polygon class="cls-1" points="20.99 17.38 18.06 19.16 15.04 17.42 15.04 17.35 17.97 15.63 20.99 17.38"/><polygon class="cls-3" points="18.04 19.08 18.04 19.45 15.02 17.71 15.02 17.35 18.04 19.08"/><polygon class="cls-4" points="41.77 15.57 26.77 24.26 26.62 24.18 23.6 22.43 22.34 21.7 22.18 21.62 22.11 21.57 22.11 21.57 21.96 21.48 21.96 21.48 20.67 20.74 18.5 19.47 18.35 19.39 33.53 10.81 41.77 15.57"/><polygon class="cls-4" points="41.48 15.4 26.5 24.08 26.48 24.09 22.34 21.7 22.19 21.61 22.11 21.57 21.96 21.48 21.96 21.48 18.6 19.53 18.62 19.52 33.6 10.84 36.96 12.79 36.96 12.79 37.11 12.88 37.19 12.93 37.34 13.01 41.48 15.4"/><polygon class="cls-6" points="30.02 12.48 18.02 19.21 18.02 19.21 18.02 19.21 18.34 19.6 30.02 12.84 30.02 12.48"/><polygon class="cls-6" points="30.02 12.47 30.02 12.84 33.34 10.91 33.34 10.55 30.02 12.47"/><polygon class="cls-7" points="30.02 12.47 33.34 10.55 33.02 10.36 29.73 12.3 30.02 12.47"/><polygon class="cls-7" points="29.73 12.3 18.02 19.05 18.02 19.05 18.02 19.05 18.34 19.24 18.34 19.24 30.02 12.47 29.73 12.3"/><polygon class="cls-8" points="18.02 19.05 18.34 19.24 18.34 19.6 18.02 19.43 18.02 19.05"/><polygon class="cls-6" points="38.78 17.88 42.15 15.94 42.07 15.62 38.78 17.47 38.78 17.88"/><path class="cls-6" d="M50.08,55,47,56.75h0l.32.39,2.79-1.61C50.07,55.34,50.08,55.14,50.08,55Z" transform="translate(-20.19 -32.49)"/><polygon class="cls-7" points="38.78 17.52 42.1 15.6 41.77 15.42 38.46 17.34 38.78 17.52"/><polygon class="cls-7" points="30.09 22.17 26.78 24.11 26.77 24.11 26.77 24.11 27.1 24.29 27.1 24.29 30.42 22.37 30.09 22.17"/><polygon class="cls-8" points="26.77 24.11 27.1 24.29 27.1 24.66 26.77 24.47 26.77 24.11"/><polygon class="cls-1" points="45.01 17.4 42.12 19.15 39.11 17.41 39.11 17.34 41.99 15.66 45.01 17.4"/><polygon class="cls-3" points="45.01 17.76 45.01 17.39 42.12 19.07 42.12 19.44 45.01 17.76"/><polygon class="cls-3" points="42.12 19.07 42.12 19.44 39.11 17.7 39.11 17.34 42.12 19.07"/><polygon class="cls-1" points="33.11 24.3 30.12 26.1 27.1 24.36 27.1 24.29 30.09 22.55 33.11 24.3"/><polygon class="cls-3" points="33.11 24.66 33.11 24.29 30.12 26.02 30.12 26.39 33.11 24.66"/><polygon class="cls-3" points="30.12 26.02 30.12 26.39 27.1 24.65 27.1 24.29 30.12 26.02"/><polygon class="cls-1" points="17.91 19.12 15.02 20.87 12.01 19.13 12.01 19.06 14.89 17.38 17.91 19.12"/><polygon class="cls-2" points="17.91 19.48 17.91 19.11 15.02 20.79 15.02 21.16 17.91 19.48"/><polygon class="cls-3" points="15.02 20.79 15.02 21.16 12.01 19.42 12.01 19.06 15.02 20.79"/><polygon class="cls-1" points="14.91 20.86 12.02 22.61 9 20.87 9 20.8 11.89 19.12 14.91 20.86"/><polygon class="cls-2" points="14.91 21.22 14.91 20.85 12.02 22.53 12.02 22.9 14.91 21.22"/><polygon class="cls-3" points="12.02 22.53 12.02 22.9 9 21.16 9 20.8 12.02 22.53"/><polygon class="cls-1" points="11.91 22.6 9.02 24.35 6 22.61 6 22.53 8.89 20.85 11.91 22.6"/><polygon class="cls-2" points="11.91 22.96 11.91 22.59 9.02 24.27 9.02 24.64 11.91 22.96"/><polygon class="cls-3" points="9.02 24.27 9.02 24.64 6 22.9 6 22.53 9.02 24.27"/><polygon class="cls-1" points="8.91 24.34 6.02 26.08 3 24.34 3 24.27 5.89 22.59 8.91 24.34"/><polygon class="cls-2" points="8.91 24.69 8.91 24.33 6.02 26 6.02 26.38 8.91 24.69"/><polygon class="cls-3" points="6.02 26 6.02 26.38 3 24.64 3 24.27 6.02 26"/><polygon class="cls-1" points="5.91 26.07 3.02 27.82 0 26.08 0 26.01 2.89 24.33 5.91 26.07"/><polygon class="cls-2" points="5.91 26.43 5.91 26.07 3.02 27.74 3.02 28.12 5.91 26.43"/><polygon class="cls-3" points="3.02 27.74 3.02 28.12 0 26.38 0 26.01 3.02 27.74"/><polygon class="cls-4" points="26.77 24.26 11.77 32.95 11.62 32.87 8.6 31.12 7.34 30.39 7.18 30.3 7.11 30.26 7.11 30.26 6.96 30.17 6.96 30.17 5.67 29.43 3.5 28.16 3.35 28.08 18.53 19.49 26.77 24.26"/><polygon class="cls-4" points="26.48 24.09 11.5 32.77 11.48 32.78 7.34 30.39 7.19 30.3 7.11 30.26 6.96 30.17 6.96 30.17 3.6 28.22 3.62 28.2 18.6 19.53 21.96 21.48 21.96 21.48 22.11 21.57 22.18 21.62 22.34 21.7 26.48 24.09"/><polygon class="cls-5" points="22.11 21.57 7.13 30.24 7.11 30.26 7.11 30.26 7.11 30.26 6.96 30.17 6.96 30.17 6.96 30.17 6.98 30.16 21.96 21.48 21.96 21.48 22.11 21.57"/><polygon class="cls-5" points="22.34 21.7 7.36 30.38 7.34 30.39 7.34 30.39 7.19 30.3 7.19 30.3 7.19 30.3 7.21 30.29 22.18 21.62 22.34 21.7"/><polygon class="cls-6" points="18.34 19.6 3.34 28.29 3.02 27.9 3.02 27.9 3.02 27.9 12.07 22.68 12.07 22.68 12.07 22.68 12.12 22.7 18.34 19.24 18.34 19.6"/><polygon class="cls-7" points="18.34 19.24 3.34 27.93 3.34 27.93 3.02 27.74 3.02 27.74 3.02 27.74 18.02 19.05 18.34 19.24"/><polygon class="cls-8" points="3.02 27.74 3.34 27.93 3.34 28.29 3.02 28.12 3.02 27.74"/><polygon class="cls-6" points="27.16 24.63 12.1 33.34 11.77 32.95 11.77 32.95 11.78 32.95 20.82 27.73 20.83 27.73 20.83 27.73 20.88 27.76 27.07 24.31 27.16 24.63"/><polygon class="cls-7" points="27.1 24.29 12.1 32.98 12.1 32.98 11.77 32.8 11.78 32.79 11.78 32.79 26.77 24.11 27.1 24.29"/><polygon class="cls-8" points="11.78 32.79 12.1 32.98 12.1 33.34 11.77 33.16 11.78 32.79"/><polygon class="cls-1" points="30.01 26.09 27.12 27.84 24.11 26.1 24.11 26.02 26.99 24.34 30.01 26.09"/><polygon class="cls-2" points="30.01 26.45 30.01 26.08 27.12 27.76 27.12 28.13 30.01 26.45"/><polygon class="cls-3" points="27.12 27.76 27.12 28.13 24.11 26.39 24.11 26.02 27.12 27.76"/><polygon class="cls-1" points="27.01 27.83 24.12 29.57 21.11 27.83 21.11 27.76 23.99 26.08 27.01 27.83"/><polygon class="cls-2" points="27.01 28.18 27.01 27.82 24.12 29.5 24.12 29.87 27.01 28.18"/><polygon class="cls-3" points="24.12 29.5 24.12 29.87 21.11 28.13 21.11 27.76 24.12 29.5"/><polygon class="cls-1" points="24.01 29.57 21.12 31.31 18.1 29.57 18.1 29.5 20.99 27.82 24.01 29.57"/><polygon class="cls-2" points="24.01 29.92 24.01 29.56 21.12 31.23 21.12 31.61 24.01 29.92"/><polygon class="cls-3" points="21.12 31.23 21.12 31.61 18.1 29.87 18.1 29.5 21.12 31.23"/><polygon class="cls-1" points="21.01 31.3 18.12 33.05 15.1 31.31 15.1 31.24 17.99 29.56 21.01 31.3"/><polygon class="cls-2" points="21.01 31.66 21.01 31.3 18.12 32.97 18.12 33.34 21.01 31.66"/><polygon class="cls-3" points="18.12 32.97 18.12 33.34 15.1 31.6 15.1 31.24 18.12 32.97"/><polygon class="cls-1" points="18.01 33.04 15.12 34.79 12.1 33.05 12.1 32.98 14.99 31.3 18.01 33.04"/><polygon class="cls-2" points="18.01 33.4 18.01 33.03 15.12 34.71 15.12 35.08 18.01 33.4"/><polygon class="cls-3" points="15.12 34.71 15.12 35.08 12.1 33.34 12.1 32.98 15.12 34.71"/><polygon class="cls-1" points="42.32 19.15 45.21 20.9 48.23 19.16 48.23 19.08 45.34 17.41 42.32 19.15"/><polygon class="cls-2" points="42.32 19.51 42.32 19.14 45.21 20.82 45.21 21.19 42.32 19.51"/><polygon class="cls-3" points="45.21 20.82 45.21 21.19 48.23 19.45 48.23 19.08 45.21 20.82"/><polygon class="cls-1" points="45.32 20.89 48.21 22.63 51.23 20.89 51.23 20.82 48.34 19.14 45.32 20.89"/><polygon class="cls-2" points="45.32 21.24 45.32 20.88 48.21 22.55 48.21 22.93 45.32 21.24"/><polygon class="cls-3" points="48.21 22.55 48.21 22.93 51.23 21.19 51.23 20.82 48.21 22.55"/><polygon class="cls-1" points="48.33 22.62 51.21 24.37 54.23 22.63 54.23 22.56 51.34 20.88 48.33 22.62"/><polygon class="cls-2" points="48.33 22.98 48.33 22.62 51.21 24.29 51.21 24.67 48.33 22.98"/><polygon class="cls-3" points="51.21 24.29 51.21 24.67 54.23 22.93 54.23 22.56 51.21 24.29"/><polygon class="cls-1" points="51.33 24.36 54.21 26.11 57.23 24.37 57.23 24.3 54.34 22.62 51.33 24.36"/><polygon class="cls-2" points="51.33 24.72 51.33 24.36 54.21 26.03 54.21 26.4 51.33 24.72"/><polygon class="cls-3" points="54.21 26.03 54.21 26.4 57.23 24.66 57.23 24.3 54.21 26.03"/><polygon class="cls-1" points="54.33 26.1 57.22 27.85 60.23 26.11 60.23 26.04 57.35 24.36 54.33 26.1"/><polygon class="cls-2" points="54.33 26.46 54.33 26.09 57.22 27.77 57.22 28.14 54.33 26.46"/><polygon class="cls-3" points="57.22 27.77 57.22 28.14 60.23 26.4 60.23 26.04 57.22 27.77"/><polygon class="cls-4" points="33.46 24.29 48.46 32.98 48.61 32.89 51.63 31.15 52.9 30.42 53.05 30.33 53.13 30.29 53.13 30.29 53.27 30.2 53.27 30.2 54.56 29.46 56.73 28.19 56.88 28.1 41.7 19.52 33.46 24.29"/><polygon class="cls-4" points="30.22 22.27 48.73 32.8 48.75 32.81 52.89 30.42 53.04 30.33 53.12 30.28 53.27 30.2 53.27 30.2 56.63 28.25 56.61 28.23 38.5 17.47 30.22 22.27"/><polygon class="cls-5" points="38.13 21.6 53.1 30.27 53.12 30.28 53.13 30.29 53.13 30.29 53.27 30.2 53.27 30.2 53.27 30.2 53.25 30.18 38.28 21.51 38.27 21.51 38.13 21.6"/><polygon class="cls-5" points="37.9 21.73 52.87 30.4 52.89 30.42 52.9 30.42 53.05 30.33 53.05 30.33 53.04 30.33 53.02 30.32 38.05 21.64 37.9 21.73"/><polygon class="cls-6" points="57.22 27.93 57.21 27.93 48.17 22.7 48.16 22.7 48.16 22.7 48.11 22.73 38.46 17.34 38.47 17.7 56.89 28.32 57.22 27.93 57.22 27.93"/><polygon class="cls-7" points="38.78 17.52 56.89 27.95 56.89 27.95 57.22 27.77 57.21 27.77 57.21 27.77 39.11 17.34 38.78 17.52"/><polygon class="cls-8" points="57.21 27.77 56.89 27.95 56.89 28.32 57.22 28.14 57.21 27.77"/><polygon class="cls-6" points="33.08 24.65 48.14 33.37 48.46 32.98 48.46 32.98 48.46 32.98 39.41 27.76 39.41 27.75 39.4 27.75 39.35 27.78 33.16 24.34 33.08 24.65"/><polygon class="cls-7" points="29.76 22.36 48.13 33.01 48.13 33.01 48.46 32.82 48.46 32.82 48.45 32.82 30.09 22.17 29.76 22.36"/><polygon class="cls-8" points="48.46 32.82 48.13 33.01 48.14 33.37 48.46 33.19 48.46 32.82"/><polygon class="cls-1" points="30.22 26.11 33.11 27.86 36.13 26.12 36.13 26.05 33.24 24.37 30.22 26.11"/><polygon class="cls-2" points="30.22 26.47 30.22 26.11 33.11 27.78 33.11 28.16 30.22 26.47"/><polygon class="cls-3" points="33.11 27.78 33.11 28.16 36.13 26.42 36.13 26.05 33.11 27.78"/><polygon class="cls-1" points="33.22 27.85 36.11 29.6 39.13 27.86 39.13 27.79 36.24 26.11 33.22 27.85"/><polygon class="cls-2" points="33.22 28.21 33.22 27.85 36.11 29.52 36.11 29.9 33.22 28.21"/><polygon class="cls-3" points="36.11 29.52 36.11 29.9 39.13 28.15 39.13 27.79 36.11 29.52"/><polygon class="cls-1" points="36.22 29.59 39.11 31.34 42.13 29.6 42.13 29.53 39.24 27.85 36.22 29.59"/><polygon class="cls-2" points="36.22 29.95 36.22 29.59 39.11 31.26 39.11 31.63 36.22 29.95"/><polygon class="cls-3" points="39.11 31.26 39.11 31.63 42.13 29.89 42.13 29.53 39.11 31.26"/><polygon class="cls-1" points="39.23 31.33 42.11 33.08 45.13 31.34 45.13 31.27 42.24 29.59 39.23 31.33"/><polygon class="cls-2" points="39.23 31.69 39.23 31.32 42.11 33 42.11 33.37 39.23 31.69"/><polygon class="cls-3" points="42.11 33 42.11 33.37 45.13 31.63 45.13 31.27 42.11 33"/><polygon class="cls-1" points="42.23 33.07 45.11 34.82 48.13 33.08 48.13 33.01 45.24 31.32 42.23 33.07"/><polygon class="cls-2" points="42.23 33.43 42.23 33.06 45.11 34.74 45.11 35.11 42.23 33.43"/><polygon class="cls-3" points="45.11 34.74 45.11 35.11 48.13 33.37 48.13 33.01 45.11 34.74"/><polygon class="cls-9" points="31.01 21.63 33.41 23.02 33.88 22.75 31.48 21.36 31.01 21.63"/><polygon class="cls-9" points="31.97 21.02 34.38 22.4 34.84 22.13 32.44 20.75 31.97 21.02"/><polygon class="cls-9" points="32.93 20.4 35.34 21.79 35.8 21.51 33.4 20.13 32.93 20.4"/><polygon class="cls-9" points="33.9 19.78 36.3 21.17 36.77 20.9 34.37 19.51 33.9 19.78"/><polygon class="cls-9" points="34.86 19.16 37.26 20.55 37.73 20.28 35.33 18.89 34.86 19.16"/><polygon class="cls-9" points="35.82 18.55 38.22 19.93 38.69 19.66 36.29 18.27 35.82 18.55"/><polygon class="cls-9" points="36.78 17.93 39.18 19.31 39.65 19.04 37.25 17.66 36.78 17.93"/><polygon class="cls-9" points="39.52 15.83 37.11 17.21 36.64 16.94 39.05 15.55 39.52 15.83"/><polygon class="cls-9" points="38.55 15.21 36.15 16.59 35.68 16.32 38.08 14.94 38.55 15.21"/><polygon class="cls-9" points="37.59 14.59 35.19 15.98 34.72 15.71 37.12 14.32 37.59 14.59"/><polygon class="cls-9" points="36.63 13.97 34.23 15.36 33.76 15.09 36.16 13.7 36.63 13.97"/><polygon class="cls-9" points="35.67 13.35 33.27 14.74 32.8 14.47 35.2 13.08 35.67 13.35"/><polygon class="cls-9" points="34.71 12.74 32.31 14.12 31.84 13.85 34.24 12.46 34.71 12.74"/><polygon class="cls-9" points="33.75 12.12 31.34 13.51 30.88 13.23 33.28 11.85 33.75 12.12"/><polygon class="cls-9" points="29.6 21.63 27.2 23.02 26.73 22.75 29.13 21.36 29.6 21.63"/><polygon class="cls-9" points="28.64 21.02 26.24 22.4 25.77 22.13 28.17 20.75 28.64 21.02"/><polygon class="cls-9" points="27.68 20.4 25.28 21.79 24.81 21.51 27.21 20.13 27.68 20.4"/><polygon class="cls-9" points="26.72 19.78 24.32 21.17 23.85 20.9 26.25 19.51 26.72 19.78"/><polygon class="cls-9" points="25.76 19.16 23.36 20.55 22.89 20.28 25.29 18.89 25.76 19.16"/><polygon class="cls-9" points="24.8 18.55 22.39 19.93 21.93 19.66 24.33 18.27 24.8 18.55"/><polygon class="cls-9" points="23.84 17.93 21.43 19.31 20.96 19.04 23.36 17.66 23.84 17.93"/></svg>