<svg id="Слой_1" data-name="Слой 1" xmlns="http://www.w3.org/2000/svg" viewBox="0 0 60.12 26.52"><defs><style>.cls-1{fill:#ccc;}.cls-2{fill:#b8bbb2;}.cls-3{fill:#6d6d69;}.cls-4{fill:#464749;}.cls-5{fill:#e5cd65;}.cls-6{fill:#b26000;}.cls-7{fill:#f3bb44;}.cls-8{fill:#836e1f;}.cls-9{fill:#eae5df;}</style></defs><polygon class="cls-1" points="12.1 1.74 14.99 3.49 18.01 1.75 18.01 1.68 15.12 0 12.1 1.74"/><polygon class="cls-2" points="12.1 2.1 12.1 1.74 14.99 3.41 14.99 3.79 12.1 2.1"/><polygon class="cls-3" points="14.99 3.41 14.99 3.79 18.01 2.04 18.01 1.68 14.99 3.41"/><polygon class="cls-1" points="15.1 3.48 17.99 5.23 21.01 3.49 21.01 3.42 18.12 1.74 15.1 3.48"/><polygon class="cls-2" points="15.1 3.84 15.1 3.48 17.99 5.15 17.99 5.52 15.1 3.84"/><polygon class="cls-3" points="17.99 5.15 17.99 5.52 21.01 3.78 21.01 3.42 17.99 5.15"/><polygon class="cls-1" points="18.1 5.22 20.99 6.97 24.01 5.23 24.01 5.16 21.12 3.48 18.1 5.22"/><polygon class="cls-2" points="18.1 5.58 18.1 5.21 20.99 6.89 20.99 7.26 18.1 5.58"/><polygon class="cls-3" points="20.99 6.89 20.99 7.26 24.01 5.52 24.01 5.16 20.99 6.89"/><polygon class="cls-1" points="21.11 6.96 23.99 8.71 27.01 6.96 27.01 6.89 24.12 5.21 21.11 6.96"/><polygon class="cls-2" points="21.11 7.32 21.11 6.95 23.99 8.63 23.99 9 21.11 7.32"/><polygon class="cls-3" points="23.99 8.63 23.99 9 27.01 7.26 27.01 6.89 23.99 8.63"/><polygon class="cls-1" points="24.11 8.7 26.99 10.45 30.01 8.7 30.01 8.63 27.12 6.95 24.11 8.7"/><polygon class="cls-2" points="24.11 9.05 24.11 8.69 26.99 10.37 26.99 10.74 24.11 9.05"/><polygon class="cls-3" points="26.99 10.37 26.99 10.74 30.01 9 30.01 8.63 26.99 10.37"/><polygon class="cls-4" points="3.24 6.88 18.24 15.57 18.39 15.49 21.41 13.74 22.68 13.01 22.83 12.93 22.9 12.88 22.91 12.88 23.05 12.79 23.05 12.79 24.34 12.05 26.51 10.78 26.66 10.7 11.56 2.12 3.24 6.88"/><polygon class="cls-4" points="3.53 6.71 21.7 17.79 33.71 24.37 42.09 19.5 11.68 2.05 8.05 4.11 8.05 4.11 7.9 4.19 7.83 4.24 7.68 4.33 3.53 6.71"/><polygon class="cls-5" points="7.9 4.19 22.88 12.87 22.9 12.88 22.9 12.88 22.91 12.88 23.05 12.79 23.05 12.79 23.05 12.79 23.03 12.78 8.05 4.11 8.05 4.11 7.9 4.19"/><polygon class="cls-5" points="7.68 4.33 22.65 13 22.67 13.01 22.68 13.02 22.82 12.93 22.82 12.93 22.82 12.93 22.8 12.91 7.83 4.24 7.68 4.33"/><polygon class="cls-6" points="11.67 2.22 30.14 12.92 30.13 12.55 11.67 1.86 11.67 2.22"/><polygon class="cls-1" points="0 8.71 2.89 10.46 5.9 8.72 5.9 8.65 3.02 6.97 0 8.71"/><polygon class="cls-2" points="0 9.07 0 8.7 2.89 10.38 2.89 10.75 0 9.07"/><polygon class="cls-3" points="2.89 10.38 2.89 10.75 5.91 9.01 5.91 8.65 2.89 10.38"/><polygon class="cls-1" points="3 10.45 5.89 12.2 8.91 10.46 8.91 10.39 6.02 8.71 3 10.45"/><polygon class="cls-2" points="3 10.81 3 10.44 5.89 12.12 5.89 12.49 3 10.81"/><polygon class="cls-3" points="5.89 12.12 5.89 12.49 8.91 10.75 8.91 10.38 5.89 12.12"/><polygon class="cls-1" points="6 12.19 8.89 13.94 11.91 12.19 11.91 12.12 9.02 10.44 6 12.19"/><polygon class="cls-2" points="6 12.54 6 12.18 8.89 13.86 8.89 14.23 6 12.54"/><polygon class="cls-3" points="8.89 13.86 8.89 14.23 11.91 12.49 11.91 12.12 8.89 13.86"/><polygon class="cls-1" points="9 13.93 11.89 15.67 14.91 13.93 14.91 13.86 12.02 12.18 9 13.93"/><polygon class="cls-2" points="9 14.28 9 13.92 11.89 15.59 11.89 15.97 9 14.28"/><polygon class="cls-3" points="11.89 15.59 11.89 15.97 14.91 14.23 14.91 13.86 11.89 15.59"/><polygon class="cls-1" points="12.01 15.66 14.89 17.41 17.91 15.67 17.91 15.6 15.02 13.92 12.01 15.66"/><polygon class="cls-2" points="12.01 16.02 12.01 15.66 14.89 17.33 14.89 17.71 12.01 16.02"/><polygon class="cls-3" points="14.89 17.33 14.89 17.71 17.91 15.96 17.91 15.6 14.89 17.33"/><polygon class="cls-1" points="48.02 1.82 45.14 3.57 42.12 1.83 42.12 1.76 45.01 0.08 48.02 1.82"/><polygon class="cls-2" points="48.02 2.18 48.02 1.82 45.14 3.49 45.13 3.87 48.02 2.18"/><polygon class="cls-3" points="45.14 3.49 45.13 3.87 42.12 2.13 42.12 1.76 45.14 3.49"/><polygon class="cls-1" points="45.02 3.56 42.13 5.31 39.12 3.57 39.12 3.5 42 1.82 45.02 3.56"/><polygon class="cls-2" points="45.02 3.92 45.02 3.56 42.13 5.23 42.13 5.61 45.02 3.92"/><polygon class="cls-3" points="42.13 5.23 42.13 5.61 39.12 3.86 39.12 3.5 42.13 5.23"/><polygon class="cls-1" points="42.02 5.3 39.13 7.05 36.12 5.31 36.12 5.24 39 3.56 42.02 5.3"/><polygon class="cls-2" points="42.02 5.66 42.02 5.29 39.13 6.97 39.13 7.34 42.02 5.66"/><polygon class="cls-3" points="39.13 6.97 39.13 7.34 36.12 5.6 36.12 5.24 39.13 6.97"/><polygon class="cls-1" points="39.02 7.04 36.13 8.79 33.12 7.05 33.12 6.98 36 5.3 39.02 7.04"/><polygon class="cls-2" points="39.02 7.4 39.02 7.03 36.13 8.71 36.13 9.08 39.02 7.4"/><polygon class="cls-3" points="36.13 8.71 36.13 9.08 33.12 7.34 33.12 6.98 36.13 8.71"/><polygon class="cls-1" points="36.02 8.78 33.13 10.53 30.11 8.79 30.11 8.71 33 7.04 36.02 8.78"/><polygon class="cls-2" points="36.02 9.14 36.02 8.77 33.13 10.45 33.13 10.82 36.02 9.14"/><polygon class="cls-3" points="33.13 10.45 33.13 10.82 30.11 9.08 30.11 8.71 33.13 10.45"/><polygon class="cls-4" points="56.88 6.97 41.88 15.66 41.74 15.57 38.71 13.82 37.45 13.1 37.3 13.01 37.22 12.96 37.22 12.96 37.07 12.88 37.07 12.88 35.79 12.14 33.61 10.87 33.46 10.78 48.65 2.2 56.88 6.97"/><polygon class="cls-4" points="56.6 6.8 41.62 15.47 41.6 15.48 37.45 13.09 37.3 13.01 37.22 12.96 37.08 12.88 37.07 12.88 33.72 10.92 33.74 10.91 48.72 2.23 52.07 4.19 52.07 4.19 52.22 4.27 52.3 4.32 52.45 4.41 56.6 6.8"/><polygon class="cls-5" points="52.22 4.27 37.24 12.95 37.22 12.96 37.22 12.96 37.22 12.96 37.07 12.88 37.07 12.88 37.08 12.88 37.1 12.86 52.07 4.19 52.07 4.19 52.22 4.27"/><polygon class="cls-5" points="52.45 4.41 37.48 13.08 37.45 13.09 37.45 13.1 37.3 13.01 37.3 13.01 37.3 13.01 37.33 13 52.3 4.32 52.45 4.41"/><polygon class="cls-6" points="48.46 2.3 30.11 12.88 30.14 12.46 42.18 5.38 42.18 5.38 42.19 5.38 42.23 5.41 48.46 1.94 48.46 2.3"/><polygon class="cls-6" points="57.27 7.33 42.21 16.05 41.89 15.66 41.89 15.66 41.89 15.66 50.94 10.43 50.94 10.43 50.94 10.43 50.99 10.46 57.19 7.01 57.27 7.33"/><polygon class="cls-7" points="57.21 7 42.22 15.68 42.21 15.68 41.89 15.5 41.89 15.5 41.89 15.5 56.89 6.81 57.21 7"/><polygon class="cls-8" points="41.89 15.5 42.21 15.68 42.21 16.05 41.89 15.86 41.89 15.5"/><polygon class="cls-1" points="60.13 8.79 57.24 10.54 54.22 8.8 54.22 8.73 57.11 7.05 60.13 8.79"/><polygon class="cls-2" points="60.13 9.15 60.13 8.79 57.24 10.46 57.24 10.83 60.13 9.15"/><polygon class="cls-3" points="57.24 10.46 57.24 10.83 54.22 9.09 54.22 8.73 57.24 10.46"/><polygon class="cls-1" points="57.12 10.53 54.24 12.28 51.22 10.54 51.22 10.47 54.1 8.79 57.12 10.53"/><polygon class="cls-2" points="57.12 10.89 57.12 10.52 54.24 12.2 54.23 12.57 57.12 10.89"/><polygon class="cls-3" points="54.24 12.2 54.23 12.57 51.22 10.83 51.22 10.47 54.24 12.2"/><polygon class="cls-1" points="54.12 12.27 51.23 14.02 48.22 12.28 48.22 12.21 51.1 10.53 54.12 12.27"/><polygon class="cls-2" points="54.12 12.63 54.12 12.26 51.23 13.94 51.23 14.31 54.12 12.63"/><polygon class="cls-3" points="51.23 13.94 51.23 14.31 48.22 12.57 48.22 12.21 51.23 13.94"/><polygon class="cls-1" points="51.12 14.01 48.23 15.76 45.22 14.01 45.22 13.94 48.1 12.26 51.12 14.01"/><polygon class="cls-2" points="51.12 14.37 51.12 14 48.23 15.68 48.23 16.05 51.12 14.37"/><polygon class="cls-3" points="48.23 15.68 48.23 16.05 45.22 14.31 45.22 13.94 48.23 15.68"/><polygon class="cls-1" points="48.12 15.74 45.23 17.49 42.22 15.75 42.22 15.68 45.1 14 48.12 15.74"/><polygon class="cls-2" points="48.12 16.1 48.12 15.74 45.23 17.41 45.23 17.79 48.12 16.1"/><polygon class="cls-3" points="45.23 17.41 45.23 17.79 42.22 16.05 42.22 15.68 45.23 17.41"/><polygon class="cls-1" points="33.02 10.51 30.14 12.26 27.12 10.52 27.12 10.45 30.01 8.77 33.02 10.51"/><polygon class="cls-2" points="33.02 10.87 33.02 10.51 30.14 12.18 30.14 12.56 33.02 10.87"/><polygon class="cls-3" points="30.14 12.18 30.14 12.56 27.12 10.81 27.12 10.45 30.14 12.18"/><polygon class="cls-1" points="21.08 17.45 18.13 19.2 15.11 17.46 15.11 17.39 18.04 15.67 21.08 17.45"/><polygon class="cls-3" points="18.11 19.12 18.11 19.49 21.13 17.75 21.13 17.38 18.11 19.12"/><polygon class="cls-2" points="18.11 19.12 18.11 19.49 15.09 17.75 15.09 17.38 18.11 19.12"/><polygon class="cls-4" points="41.88 15.66 26.89 24.34 26.74 24.26 23.71 22.51 22.45 21.79 22.3 21.7 22.22 21.65 22.22 21.65 22.07 21.57 22.07 21.57 20.79 20.82 18.61 19.55 18.46 19.47 33.65 10.89 41.88 15.66"/><polygon class="cls-4" points="41.6 15.48 26.62 24.16 26.6 24.17 22.45 21.78 22.3 21.7 22.22 21.65 22.08 21.56 22.07 21.56 18.71 19.61 18.74 19.6 33.78 10.77 37.07 12.88 37.07 12.88 37.22 12.96 37.3 13.01 37.45 13.1 41.6 15.48"/><polygon class="cls-1" points="18.19 19.25 21.05 20.96 24.16 19.18 21.2 17.5 18.19 19.25"/><polygon class="cls-3" points="21.14 20.91 21.14 21.29 24.16 19.54 24.16 19.18 21.14 20.91"/><polygon class="cls-2" points="21.14 20.91 21.14 21.29 18.19 19.61 18.19 19.25 21.14 20.91"/><polygon class="cls-1" points="21.26 20.99 24.15 22.74 27.17 21 27.17 20.93 24.28 19.25 21.26 20.99"/><polygon class="cls-3" points="24.2 22.68 24.2 23.05 27.22 21.31 27.22 20.95 24.2 22.68"/><polygon class="cls-2" points="24.2 22.68 24.2 23.05 21.26 21.36 21.26 20.99 24.2 22.68"/><polygon class="cls-1" points="24.31 22.76 27 24.39 30.02 22.65 30.02 22.58 27.33 21.02 24.31 22.76"/><polygon class="cls-3" points="27.02 24.31 27.02 24.68 30.04 22.94 30.04 22.58 27.02 24.31"/><polygon class="cls-2" points="27.02 24.31 27.02 24.68 24.31 23.12 24.31 22.76 27.02 24.31"/><polygon class="cls-6" points="30.43 22.75 42.27 16.02 42.19 15.7 30.43 22.34 30.43 22.75"/><polygon class="cls-7" points="30.16 22.66 42.21 15.68 41.89 15.5 29.99 22.38 30.16 22.66"/><polygon class="cls-1" points="45.13 17.48 42.49 19.08 39.48 17.34 39.48 17.26 42.11 15.74 45.13 17.48"/><polygon class="cls-2" points="45.13 17.84 45.13 17.48 42.49 19 42.49 19.37 45.13 17.84"/><polygon class="cls-3" points="42.49 19 42.49 19.37 39.48 17.63 39.48 17.26 42.49 19"/><polygon class="cls-1" points="42.36 19.1 39.5 20.81 36.49 19.07 36.49 19 39.32 17.36 42.36 19.1"/><polygon class="cls-2" points="42.36 19.46 42.36 19.09 39.5 20.73 39.5 21.1 42.36 19.46"/><polygon class="cls-3" points="39.5 20.73 39.5 21.1 36.49 19.36 36.49 19 39.5 20.73"/><polygon class="cls-1" points="39.4 20.8 36.41 22.6 33.4 20.86 33.4 20.79 36.38 19.05 39.4 20.8"/><polygon class="cls-2" points="39.4 21.16 39.4 20.79 36.41 22.52 36.41 22.89 39.4 21.16"/><polygon class="cls-3" points="36.41 22.52 36.41 22.89 33.4 21.15 33.4 20.79 36.41 22.52"/><polygon class="cls-1" points="36.31 22.59 33.32 24.39 30.31 22.65 30.31 22.58 33.29 20.85 36.31 22.59"/><polygon class="cls-2" points="36.31 22.95 36.31 22.58 33.32 24.31 33.32 24.68 36.31 22.95"/><polygon class="cls-3" points="33.32 24.31 33.32 24.68 30.3 22.94 30.3 22.58 33.32 24.31"/><polygon class="cls-1" points="33.22 24.38 30.23 26.18 27.22 24.44 27.22 24.37 30.2 22.64 33.22 24.38"/><polygon class="cls-2" points="33.22 24.74 33.22 24.37 30.23 26.1 30.23 26.52 33.22 24.74"/><polygon class="cls-2" points="30.23 26.1 30.23 26.52 27.21 24.77 27.21 24.37 30.23 26.1"/><polygon class="cls-7" points="3.03 7 30.16 22.66 30.22 22.34 3.35 6.81 3.03 7"/><polygon class="cls-7" points="11.67 1.86 30.14 12.56 30.43 12.36 11.99 1.68 11.67 1.86"/><polygon class="cls-7" points="48.46 1.94 30.13 12.55 30.14 12.18 48.13 1.76 48.46 1.94"/><polygon class="cls-9" points="20.73 16.08 23.13 17.47 23.6 17.2 21.2 15.81 20.73 16.08"/><polygon class="cls-9" points="21.69 15.46 24.09 16.85 24.56 16.58 22.16 15.19 21.69 15.46"/><polygon class="cls-9" points="22.65 14.85 25.05 16.23 25.52 15.96 23.12 14.57 22.65 14.85"/><polygon class="cls-9" points="23.61 14.23 26.01 15.61 26.48 15.34 24.08 13.96 23.61 14.23"/><polygon class="cls-9" points="24.57 13.61 26.97 15 27.44 14.72 25.04 13.34 24.57 13.61"/><polygon class="cls-9" points="25.53 12.99 27.94 14.38 28.41 14.11 26 12.72 25.53 12.99"/><polygon class="cls-9" points="26.5 12.38 28.9 13.76 29.37 13.49 26.97 12.1 26.5 12.38"/><polygon class="cls-9" points="39.45 16.28 37.05 17.66 36.58 17.39 38.98 16 39.45 16.28"/><polygon class="cls-9" points="38.49 15.66 36.09 17.05 35.62 16.77 38.02 15.39 38.49 15.66"/><polygon class="cls-9" points="37.53 15.04 35.13 16.43 34.66 16.16 37.06 14.77 37.53 15.04"/><polygon class="cls-9" points="36.57 14.42 34.16 15.81 33.7 15.54 36.1 14.15 36.57 14.42"/><polygon class="cls-9" points="35.6 13.81 33.2 15.19 32.73 14.92 35.13 13.53 35.6 13.81"/><polygon class="cls-9" points="34.64 13.19 32.24 14.57 31.77 14.3 34.17 12.92 34.64 13.19"/><polygon class="cls-9" points="33.68 12.57 31.28 13.96 30.81 13.69 33.21 12.3 33.68 12.57"/></svg>