<svg id="Слой_1" data-name="Слой 1" xmlns="http://www.w3.org/2000/svg" viewBox="0 0 866.57 505.35"><defs><style>.cls-1{fill:#ccc;}.cls-2{fill:#b8bbb2;}.cls-3{fill:#6d6d69;}.cls-4{fill:#464749;}.cls-5{fill:#e5cd65;}.cls-6{fill:#b26000;}.cls-7{fill:#f3bb44;}.cls-8{fill:#836e1f;}.cls-9{fill:#eae5df;}</style></defs><polygon class="cls-1" points="173.77 25.03 215.24 50.14 258.56 25.13 258.56 24.12 217.11 0 173.77 25.03"/><polygon class="cls-2" points="173.77 30.17 173.77 24.94 215.24 49 215.25 54.35 173.77 30.17"/><polygon class="cls-3" points="215.24 49 215.25 54.35 258.57 29.35 258.57 24.11 215.24 49"/><polygon class="cls-1" points="216.87 49.99 258.33 75.1 301.65 50.09 301.65 49.08 260.21 24.96 216.87 49.99"/><polygon class="cls-2" points="216.87 55.13 216.87 49.9 258.34 73.96 258.34 79.31 216.87 55.13"/><polygon class="cls-3" points="258.34 73.96 258.34 79.31 301.66 54.31 301.66 49.08 258.34 73.96"/><polygon class="cls-1" points="259.96 74.95 301.43 100.06 344.75 75.06 344.75 74.04 303.31 49.92 259.96 74.95"/><polygon class="cls-2" points="259.96 80.09 259.96 74.86 301.44 98.92 301.44 104.28 259.96 80.09"/><polygon class="cls-3" points="301.44 98.92 301.44 104.28 344.76 79.27 344.76 74.04 301.44 98.92"/><polygon class="cls-1" points="303.06 99.91 344.53 125.02 387.85 100.02 387.85 99 346.4 74.88 303.06 99.91"/><polygon class="cls-2" points="303.06 105.06 303.06 99.82 344.53 123.88 344.54 129.24 303.06 105.06"/><polygon class="cls-3" points="344.53 123.88 344.54 129.24 387.86 104.23 387.86 99 344.53 123.88"/><polygon class="cls-1" points="346.16 124.87 387.63 149.98 430.94 124.98 430.94 123.96 389.5 99.84 346.16 124.87"/><polygon class="cls-2" points="346.16 130.02 346.16 124.78 387.63 148.84 387.63 154.2 346.16 130.02"/><polygon class="cls-3" points="387.63 148.84 387.63 154.2 430.95 129.19 430.95 123.96 387.63 148.84"/><polygon class="cls-4" points="46.54 98.87 261.93 223.64 264.07 222.41 307.49 197.34 325.62 186.88 327.77 185.63 328.9 184.96 328.92 184.96 331.03 183.73 331.05 183.73 349.5 173.09 380.74 154.85 382.85 153.64 164.82 30.39 46.54 98.87"/><polygon class="cls-4" points="50.65 96.42 311.54 255.42 484.07 349.95 604.33 280.02 167.75 29.43 115.66 58.96 115.64 58.96 113.5 60.19 112.38 60.86 110.22 62.11 50.65 96.42"/><polygon class="cls-5" points="113.5 60.19 328.54 184.75 328.87 184.94 328.89 184.97 328.91 184.97 331.03 183.74 331 183.72 330.98 183.72 330.68 183.52 115.66 58.96 115.64 58.96 113.5 60.19"/><polygon class="cls-5" points="110.22 62.11 325.24 186.65 325.57 186.84 325.61 186.89 327.77 185.64 327.75 185.61 327.7 185.61 327.4 185.44 112.38 60.86 110.22 62.11"/><polygon class="cls-6" points="167.56 31.91 432.74 185.48 432.72 180.25 167.54 26.68 167.56 31.91"/><polygon class="cls-1" points="0 125.08 41.47 150.19 84.79 125.19 84.79 124.17 43.34 100.05 0 125.08"/><polygon class="cls-2" points="0 130.22 0 124.99 41.47 149.05 41.48 154.41 0 130.22"/><polygon class="cls-3" points="41.47 149.05 41.48 154.41 84.8 129.4 84.8 124.17 41.47 149.05"/><polygon class="cls-1" points="43.1 150.04 84.56 175.15 127.88 150.15 127.88 149.13 86.44 125.01 43.1 150.04"/><polygon class="cls-2" points="43.1 155.19 43.1 149.95 84.57 174.01 84.57 179.37 43.1 155.19"/><polygon class="cls-3" points="84.57 174.01 84.57 179.37 127.89 154.36 127.89 149.13 84.57 174.01"/><polygon class="cls-1" points="86.19 175 127.66 200.11 170.98 175.11 170.98 174.09 129.53 149.97 86.19 175"/><polygon class="cls-2" points="86.19 180.15 86.19 174.91 127.67 198.97 127.67 204.33 86.19 180.15"/><polygon class="cls-3" points="127.67 198.97 127.67 204.33 170.99 179.32 170.99 174.09 127.67 198.97"/><polygon class="cls-1" points="129.29 199.96 170.76 225.07 214.08 200.07 214.08 199.06 172.63 174.94 129.29 199.96"/><polygon class="cls-2" points="129.29 205.11 129.29 199.87 170.76 223.93 170.76 229.29 129.29 205.11"/><polygon class="cls-3" points="170.76 223.93 170.76 229.29 214.09 204.28 214.09 199.05 170.76 223.93"/><polygon class="cls-1" points="172.39 224.92 213.85 250.03 257.17 225.03 257.17 224.02 215.73 199.9 172.39 224.92"/><polygon class="cls-2" points="172.39 230.07 172.39 224.84 213.86 248.89 213.86 254.25 172.39 230.07"/><polygon class="cls-3" points="213.86 248.89 213.86 254.25 257.18 229.25 257.18 224.01 213.86 248.89"/><polygon class="cls-1" points="689.61 26.2 648.14 51.31 604.82 26.31 604.82 25.29 646.27 1.17 689.61 26.2"/><polygon class="cls-2" points="689.61 31.34 689.61 26.11 648.14 50.17 648.13 55.52 689.61 31.34"/><polygon class="cls-3" points="648.14 50.17 648.13 55.52 604.81 30.52 604.81 25.29 648.14 50.17"/><polygon class="cls-1" points="646.51 51.16 605.05 76.27 561.73 51.27 561.73 50.25 603.17 26.13 646.51 51.16"/><polygon class="cls-2" points="646.51 56.3 646.51 51.07 605.04 75.13 605.04 80.48 646.51 56.3"/><polygon class="cls-3" points="605.04 75.13 605.04 80.48 561.72 55.48 561.72 50.25 605.04 75.13"/><polygon class="cls-1" points="603.42 76.12 561.95 101.23 518.63 76.23 518.63 75.21 560.07 51.09 603.42 76.12"/><polygon class="cls-2" points="603.42 81.27 603.42 76.03 561.95 100.09 561.94 105.44 603.42 81.27"/><polygon class="cls-3" points="561.95 100.09 561.94 105.44 518.62 80.44 518.62 75.21 561.95 100.09"/><polygon class="cls-1" points="560.32 101.08 518.85 126.19 475.53 101.19 475.53 100.17 516.98 76.05 560.32 101.08"/><polygon class="cls-2" points="560.32 106.23 560.32 100.99 518.85 125.05 518.84 130.41 560.32 106.23"/><polygon class="cls-3" points="518.85 125.05 518.84 130.41 475.52 105.4 475.52 100.17 518.85 125.05"/><polygon class="cls-1" points="517.22 126.04 475.76 151.15 432.44 126.15 432.44 125.14 473.88 101.01 517.22 126.04"/><polygon class="cls-2" points="517.22 131.19 517.22 125.95 475.75 150.01 475.75 155.37 517.22 131.19"/><polygon class="cls-3" points="475.75 150.01 475.75 155.37 432.43 130.36 432.43 125.13 475.75 150.01"/><polygon class="cls-4" points="816.85 100.04 601.45 224.81 599.32 223.58 555.89 198.51 537.77 188.05 535.61 186.8 534.49 186.13 534.47 186.13 532.35 184.9 532.33 184.9 513.88 174.26 482.64 156.02 480.53 154.81 698.56 31.57 816.85 100.04"/><polygon class="cls-4" points="812.73 97.59 597.62 222.19 597.34 222.36 537.81 188.01 535.68 186.78 534.51 186.12 532.4 184.89 532.38 184.89 484.14 156.84 484.46 156.65 699.53 32.07 747.72 60.13 747.74 60.13 749.88 61.36 751 62.03 753.16 63.28 812.73 97.59"/><polygon class="cls-5" points="749.88 61.36 534.84 185.92 534.51 186.12 534.49 186.14 534.47 186.14 532.36 184.91 532.38 184.89 532.4 184.89 532.7 184.69 747.72 60.13 747.74 60.13 749.88 61.36"/><polygon class="cls-5" points="753.16 63.28 538.14 187.82 537.81 188.01 537.77 188.06 535.61 186.81 535.63 186.78 535.68 186.78 535.98 186.61 751 62.03 753.16 63.28"/><polygon class="cls-6" points="695.82 33.08 480.38 157.9 475.72 152.28 475.74 152.26 475.76 152.26 605.71 77.27 605.75 77.24 605.77 77.24 606.48 77.65 695.84 27.85 695.82 33.08"/><polygon class="cls-7" points="695.84 27.85 480.45 152.62 480.41 152.66 475.75 150.01 475.77 149.99 475.8 149.99 691.19 25.22 695.84 27.85"/><polygon class="cls-8" points="475.77 149.99 480.41 152.66 480.38 157.9 475.73 155.37 475.77 149.99"/><polygon class="cls-6" points="822.37 105.25 606.13 230.46 601.47 224.84 601.49 224.82 601.51 224.82 731.46 149.83 731.5 149.81 731.52 149.81 732.23 150.22 821.17 100.7 822.37 105.25"/><polygon class="cls-7" points="821.57 100.45 606.2 225.18 606.16 225.23 601.5 222.57 601.52 222.55 601.54 222.55 816.89 97.8 821.57 100.45"/><polygon class="cls-8" points="601.52 222.55 606.16 225.23 606.14 230.46 601.48 227.81 601.52 222.55"/><polygon class="cls-1" points="863.38 126.25 821.91 151.36 778.6 126.36 778.6 125.34 820.04 101.22 863.38 126.25"/><polygon class="cls-2" points="863.38 131.4 863.38 126.16 821.91 150.22 821.9 155.58 863.38 131.4"/><polygon class="cls-3" points="821.91 150.22 821.9 155.58 778.59 130.57 778.59 125.34 821.91 150.22"/><polygon class="cls-1" points="820.28 151.21 778.82 176.32 735.5 151.32 735.5 150.31 776.94 126.18 820.28 151.21"/><polygon class="cls-2" points="820.28 156.36 820.28 151.12 778.81 175.18 778.81 180.54 820.28 156.36"/><polygon class="cls-3" points="778.81 175.18 778.81 180.54 735.49 155.53 735.49 150.3 778.81 175.18"/><polygon class="cls-1" points="777.19 176.17 735.72 201.28 692.4 176.28 692.4 175.26 733.85 151.15 777.19 176.17"/><polygon class="cls-2" points="777.19 181.32 777.19 176.08 735.72 200.14 735.71 205.5 777.19 181.32"/><polygon class="cls-3" points="735.72 200.14 735.71 205.5 692.39 180.49 692.39 175.26 735.72 200.14"/><polygon class="cls-1" points="734.09 201.13 692.63 226.25 649.3 201.24 649.3 200.23 690.75 176.1 734.09 201.13"/><polygon class="cls-2" points="734.09 206.28 734.09 201.04 692.62 225.1 692.62 230.46 734.09 206.28"/><polygon class="cls-3" points="692.62 225.1 692.62 230.46 649.29 205.46 649.29 200.22 692.62 225.1"/><polygon class="cls-1" points="691 226.09 649.53 251.21 606.21 226.2 606.21 225.19 647.65 201.07 691 226.09"/><polygon class="cls-2" points="691 231.24 691 226 649.52 250.06 649.52 255.42 691 231.24"/><polygon class="cls-3" points="649.52 250.06 649.52 255.42 606.2 230.41 606.2 225.18 649.52 250.06"/><polygon class="cls-1" points="474.22 150.97 432.75 176.08 389.43 151.08 389.43 150.06 430.88 125.94 474.22 150.97"/><polygon class="cls-2" points="474.22 156.11 474.22 150.88 432.74 174.94 432.74 180.29 474.22 156.11"/><polygon class="cls-3" points="432.74 174.94 432.74 180.29 389.42 155.29 389.42 150.06 432.74 174.94"/><polygon class="cls-1" points="303.01 250.71 260.94 276.27 217.62 251.27 217.62 250.26 259.67 225.69 303.01 250.71"/><polygon class="cls-3" points="260.67 275.13 260.67 280.49 217.35 255.48 217.35 250.25 260.67 275.13"/><polygon class="cls-4" points="601.45 224.81 386.06 349.58 383.92 348.35 340.49 323.28 322.37 312.82 320.21 311.57 319.09 310.9 319.07 310.9 316.96 309.67 316.94 309.67 298.49 299.04 267.25 280.79 265.14 279.58 483.17 156.34 601.45 224.81"/><polygon class="cls-4" points="597.34 222.36 382.22 346.96 381.94 347.13 322.42 312.79 320.28 311.56 319.12 310.89 317.01 309.66 316.99 309.66 268.74 281.62 269.07 281.42 484.14 156.84 532.33 184.9 532.35 184.9 534.49 186.13 535.61 186.8 537.77 188.05 597.34 222.36"/><polygon class="cls-6" points="311.54 250.33 260.37 277.03 260.35 277.03 260.33 277.05 264.99 282.67 311.54 255.42 311.54 250.33"/><polygon class="cls-6" points="432.74 180.29 432.74 185.48 480.42 157.85 480.45 152.62 432.74 180.29"/><polygon class="cls-7" points="432.74 180.29 480.45 152.62 475.8 149.99 428.61 177.78 432.74 180.29"/><polygon class="cls-7" points="307.35 247.9 260.4 274.76 260.38 274.76 260.36 274.78 265.01 277.43 265.06 277.39 311.54 250.33 307.35 247.9"/><polygon class="cls-8" points="260.38 274.76 265.01 277.43 264.99 282.67 260.34 280.14 260.38 274.76"/><polygon class="cls-6" points="558.56 257.98 606.97 230.02 605.77 225.47 558.54 251.99 558.56 257.98"/><path class="cls-6" d="M489.77,619.42,445,645.24h0l0,0,4.66,5.61,40-23.18C489.68,624.94,489.73,622.18,489.77,619.42Z" transform="translate(-58.89 -295.65)"/><polygon class="cls-7" points="558.54 252.74 606.18 225.22 601.5 222.57 553.97 250.11 558.54 252.74"/><polygon class="cls-7" points="433.67 319.54 386.15 347.32 386.13 347.32 386.11 347.34 390.76 350 390.81 349.95 438.49 322.34 433.67 319.54"/><polygon class="cls-8" points="386.13 347.32 390.76 350 390.74 355.23 386.09 352.58 386.13 347.32"/><polygon class="cls-1" points="647.99 251.02 606.52 276.13 563.2 251.13 563.2 250.11 604.65 225.99 647.99 251.02"/><polygon class="cls-3" points="647.99 256.17 647.99 250.93 606.52 274.99 606.51 280.35 647.99 256.17"/><polygon class="cls-3" points="606.52 274.99 606.51 280.35 563.19 255.34 563.19 250.11 606.52 274.99"/><polygon class="cls-1" points="477.05 350.08 434.14 375.98 390.81 350.97 390.81 349.96 433.71 325.06 477.05 350.08"/><polygon class="cls-3" points="477.05 355.23 477.05 350 434.13 374.83 434.13 380.19 477.05 355.23"/><polygon class="cls-3" points="434.13 374.83 434.13 380.19 390.81 355.19 390.81 349.95 434.13 374.83"/><polygon class="cls-1" points="258.82 275.74 217.36 300.85 174.04 275.85 174.04 274.83 215.48 250.71 258.82 275.74"/><polygon class="cls-2" points="258.82 280.88 258.82 275.65 217.35 299.71 217.35 305.07 258.82 280.88"/><polygon class="cls-3" points="217.35 299.71 217.35 305.07 174.03 280.06 174.03 274.83 217.35 299.71"/><polygon class="cls-1" points="215.73 300.7 174.26 325.81 130.94 300.81 130.94 299.8 172.38 275.67 215.73 300.7"/><polygon class="cls-2" points="215.73 305.85 215.73 300.61 174.26 324.67 174.25 330.03 215.73 305.85"/><polygon class="cls-3" points="174.26 324.67 174.25 330.03 130.93 305.02 130.93 299.79 174.26 324.67"/><polygon class="cls-1" points="172.63 325.66 131.16 350.77 87.84 325.77 87.84 324.75 129.29 300.63 172.63 325.66"/><polygon class="cls-2" points="172.63 330.81 172.63 325.57 131.16 349.63 131.16 354.99 172.63 330.81"/><polygon class="cls-3" points="131.16 349.63 131.16 354.99 87.83 329.98 87.83 324.75 131.16 349.63"/><polygon class="cls-1" points="129.53 350.62 88.07 375.73 44.75 350.73 44.75 349.72 86.19 325.6 129.53 350.62"/><polygon class="cls-2" points="129.53 355.77 129.53 350.53 88.06 374.59 88.06 379.95 129.53 355.77"/><polygon class="cls-3" points="88.06 374.59 88.06 379.95 44.74 354.94 44.74 349.71 88.06 374.59"/><polygon class="cls-1" points="86.44 375.58 44.97 400.69 1.65 375.69 1.65 374.68 43.09 350.56 86.44 375.58"/><polygon class="cls-2" points="86.44 380.73 86.44 375.5 44.97 399.55 44.96 404.91 86.44 380.73"/><polygon class="cls-3" points="44.97 399.55 44.96 404.91 1.64 379.9 1.64 374.67 44.97 399.55"/><polygon class="cls-4" points="386.06 349.58 170.67 474.36 168.53 473.12 125.1 448.06 106.98 437.59 104.82 436.34 103.7 435.67 103.68 435.67 101.56 434.44 101.54 434.44 83.1 423.81 51.86 405.56 49.74 404.35 267.77 281.11 386.06 349.58"/><polygon class="cls-4" points="381.94 347.13 166.83 471.73 166.55 471.9 107.03 437.56 104.89 436.33 103.73 435.66 101.61 434.43 101.59 434.43 53.35 406.39 53.67 406.19 268.74 281.62 316.94 309.67 316.96 309.67 319.09 310.9 320.21 311.57 322.37 312.82 381.94 347.13"/><polygon class="cls-5" points="319.09 310.9 104.05 435.46 103.73 435.66 103.71 435.68 103.68 435.68 101.57 434.45 101.59 434.43 101.61 434.43 101.92 434.23 316.94 309.67 316.96 309.67 319.09 310.9"/><polygon class="cls-5" points="322.37 312.82 107.35 437.36 107.03 437.56 106.98 437.6 104.83 436.35 104.85 436.33 104.89 436.33 105.19 436.15 320.21 311.57 322.37 312.82"/><polygon class="cls-6" points="265.03 282.63 49.6 407.44 44.94 401.82 44.96 401.8 44.98 401.8 174.92 326.81 174.96 326.79 174.98 326.79 175.69 327.2 265.06 277.39 265.03 282.63"/><polygon class="cls-7" points="265.06 277.39 49.66 402.16 49.62 402.2 44.97 399.55 44.99 399.53 45.01 399.53 260.4 274.76 265.06 277.39"/><polygon class="cls-8" points="44.99 399.53 49.62 402.2 49.6 407.44 44.95 404.91 44.99 399.53"/><polygon class="cls-6" points="391.58 354.79 175.35 480 170.69 474.38 170.71 474.36 170.73 474.36 300.67 399.37 300.71 399.35 300.73 399.35 301.45 399.76 390.38 350.25 391.58 354.79"/><polygon class="cls-7" points="390.79 350 175.41 474.72 175.37 474.77 170.72 472.11 170.74 472.09 170.76 472.09 386.11 347.34 390.79 350"/><polygon class="cls-8" points="170.74 472.09 175.37 474.77 175.35 480 170.7 477.35 170.74 472.09"/><polygon class="cls-1" points="432.6 375.79 391.13 400.9 347.81 375.9 347.81 374.89 389.25 350.76 432.6 375.79"/><polygon class="cls-2" points="432.6 380.94 432.6 375.7 391.12 399.76 391.12 405.12 432.6 380.94"/><polygon class="cls-3" points="391.12 399.76 391.12 405.12 347.8 380.11 347.8 374.88 391.12 399.76"/><polygon class="cls-1" points="389.5 400.75 348.03 425.87 304.71 400.86 304.71 399.85 346.16 375.73 389.5 400.75"/><polygon class="cls-2" points="389.5 405.9 389.5 400.67 348.03 424.72 348.02 430.08 389.5 405.9"/><polygon class="cls-3" points="348.03 424.72 348.02 430.08 304.7 405.07 304.7 399.84 348.03 424.72"/><polygon class="cls-1" points="346.4 425.71 304.94 450.83 261.62 425.82 261.62 424.81 303.06 400.69 346.4 425.71"/><polygon class="cls-2" points="346.4 430.86 346.4 425.63 304.93 449.68 304.93 455.04 346.4 430.86"/><polygon class="cls-3" points="304.93 449.68 304.93 455.04 261.61 430.04 261.61 424.8 304.93 449.68"/><polygon class="cls-1" points="303.31 450.67 261.84 475.79 218.52 450.78 218.52 449.77 259.96 425.65 303.31 450.67"/><polygon class="cls-2" points="303.31 455.82 303.31 450.59 261.83 474.64 261.83 480 303.31 455.82"/><polygon class="cls-3" points="261.83 474.64 261.83 480 218.51 455 218.51 449.76 261.83 474.64"/><polygon class="cls-1" points="260.21 475.63 218.74 500.75 175.42 475.74 175.42 474.73 216.87 450.61 260.21 475.63"/><polygon class="cls-2" points="260.21 480.78 260.21 475.55 218.74 499.6 218.73 504.96 260.21 480.78"/><polygon class="cls-3" points="218.74 499.6 218.73 504.96 175.41 479.96 175.41 474.72 218.74 499.6"/><polygon class="cls-7" points="43.45 100.45 306.86 252.96 311.54 250.33 48.13 97.8 43.45 100.45"/><polygon class="cls-7" points="169.18 27.85 432.74 180.39 436.91 177.47 173.84 25.22 169.18 27.85"/><polygon class="cls-1" points="609.38 276.12 650.85 301.24 694.17 276.23 694.17 275.22 652.73 251.1 609.38 276.12"/><polygon class="cls-2" points="609.38 281.27 609.38 276.04 650.86 300.09 650.86 305.45 609.38 281.27"/><polygon class="cls-3" points="650.86 300.09 650.86 305.45 694.18 280.45 694.18 275.21 650.86 300.09"/><polygon class="cls-1" points="652.48 301.08 693.95 326.2 737.27 301.19 737.27 300.18 695.82 276.06 652.48 301.08"/><polygon class="cls-2" points="652.48 306.23 652.48 301 693.95 325.05 693.96 330.41 652.48 306.23"/><polygon class="cls-3" points="693.95 325.05 693.96 330.41 737.28 305.41 737.28 300.17 693.95 325.05"/><polygon class="cls-1" points="695.58 326.04 737.04 351.16 780.36 326.15 780.36 325.14 738.92 301.02 695.58 326.04"/><polygon class="cls-2" points="695.58 331.19 695.58 325.96 737.05 350.01 737.05 355.37 695.58 331.19"/><polygon class="cls-3" points="737.05 350.01 737.05 355.37 780.37 330.37 780.37 325.13 737.05 350.01"/><polygon class="cls-1" points="738.67 351.01 780.14 376.12 823.46 351.11 823.46 350.1 782.01 325.98 738.67 351.01"/><polygon class="cls-2" points="738.67 356.15 738.67 350.92 780.14 374.98 780.15 380.33 738.67 356.15"/><polygon class="cls-3" points="780.14 374.98 780.15 380.33 823.47 355.33 823.47 350.1 780.14 374.98"/><polygon class="cls-1" points="781.77 375.97 823.24 401.08 866.56 376.07 866.56 375.06 825.11 350.94 781.77 375.97"/><polygon class="cls-2" points="781.77 381.11 781.77 375.88 823.24 399.94 823.25 405.29 781.77 381.11"/><polygon class="cls-3" points="823.24 399.94 823.25 405.29 866.57 380.29 866.57 375.06 823.24 399.94"/><polygon class="cls-4" points="482.15 349.97 697.54 474.74 699.68 473.51 743.11 448.44 761.23 437.98 763.38 436.73 764.51 436.06 764.53 436.06 766.64 434.83 766.66 434.83 785.11 424.19 816.35 405.94 818.46 404.74 600.43 281.49 482.15 349.97"/><polygon class="cls-4" points="486.26 347.51 701.38 472.11 701.66 472.29 761.18 437.94 763.32 436.71 764.48 436.04 766.59 434.81 766.62 434.81 814.86 406.77 814.53 406.58 599.46 282 551.27 310.06 551.25 310.06 549.11 311.29 547.99 311.95 545.84 313.21 486.26 347.51"/><polygon class="cls-5" points="549.11 311.29 764.16 435.85 764.48 436.04 764.5 436.06 764.52 436.06 766.64 434.83 766.62 434.81 766.59 434.81 766.29 434.62 551.27 310.06 551.25 310.06 549.11 311.29"/><polygon class="cls-5" points="545.84 313.21 760.86 437.75 761.18 437.94 761.22 437.98 763.38 436.73 763.36 436.71 763.32 436.71 763.01 436.54 547.99 311.95 545.84 313.21"/><polygon class="cls-6" points="823.25 402.18 823.23 402.18 693.29 327.19 693.25 327.17 693.22 327.17 692.51 327.58 553.97 250.11 553.99 255.34 818.61 407.82 823.27 402.2 823.25 402.18"/><polygon class="cls-7" points="558.54 252.74 818.54 402.55 818.59 402.59 823.24 399.94 823.22 399.91 823.2 399.91 563.19 250.11 558.54 252.74"/><polygon class="cls-8" points="823.22 399.91 818.59 402.59 818.61 407.82 823.26 405.29 823.22 399.91"/><polygon class="cls-6" points="476.63 355.18 692.86 480.39 697.52 474.77 697.5 474.75 697.48 474.75 567.54 399.75 567.5 399.73 567.47 399.73 566.76 400.14 477.82 350.63 476.63 355.18"/><polygon class="cls-7" points="428.99 322.19 692.79 475.11 692.84 475.15 697.49 472.5 697.47 472.48 697.45 472.48 433.67 319.54 428.99 322.19"/><polygon class="cls-8" points="697.47 472.48 692.84 475.15 692.86 480.39 697.51 477.73 697.47 472.48"/><polygon class="cls-1" points="435.61 376.18 477.08 401.29 520.4 376.29 520.4 375.27 478.95 351.15 435.61 376.18"/><polygon class="cls-2" points="435.61 381.32 435.61 376.09 477.08 400.14 477.09 405.5 435.61 381.32"/><polygon class="cls-3" points="477.08 400.14 477.09 405.5 520.41 380.5 520.41 375.26 477.08 400.14"/><polygon class="cls-1" points="478.71 401.14 520.17 426.25 563.49 401.25 563.49 400.23 522.05 376.11 478.71 401.14"/><polygon class="cls-2" points="478.71 406.28 478.71 401.05 520.18 425.11 520.18 430.46 478.71 406.28"/><polygon class="cls-3" points="520.18 425.11 520.18 430.46 563.5 405.46 563.5 400.23 520.18 425.11"/><polygon class="cls-1" points="521.8 426.1 563.27 451.21 606.59 426.21 606.59 425.19 565.15 401.07 521.8 426.1"/><polygon class="cls-2" points="521.8 431.24 521.8 426.01 563.28 450.07 563.28 455.42 521.8 431.24"/><polygon class="cls-3" points="563.28 450.07 563.28 455.42 606.6 430.42 606.6 425.19 563.28 450.07"/><polygon class="cls-1" points="564.9 451.06 606.37 476.17 649.69 451.17 649.69 450.15 608.24 426.03 564.9 451.06"/><polygon class="cls-2" points="564.9 456.2 564.9 450.97 606.37 475.03 606.38 480.39 564.9 456.2"/><polygon class="cls-3" points="606.37 475.03 606.38 480.39 649.7 455.38 649.7 450.15 606.37 475.03"/><polygon class="cls-1" points="608 476.02 649.46 501.13 692.78 476.13 692.78 475.11 651.34 450.99 608 476.02"/><polygon class="cls-2" points="608 481.17 608 475.93 649.47 499.99 649.47 505.35 608 481.17"/><polygon class="cls-3" points="649.47 499.99 649.47 505.35 692.79 480.34 692.79 475.11 649.47 499.99"/><polygon class="cls-9" points="442.22 314.47 476.71 334.37 483.45 330.48 448.97 310.56 442.22 314.47"/><polygon class="cls-9" points="456.02 305.6 490.52 325.5 497.26 321.61 462.78 301.69 456.02 305.6"/><polygon class="cls-9" points="469.83 296.72 504.33 316.63 511.06 312.74 476.59 292.82 469.83 296.72"/><polygon class="cls-9" points="483.64 287.85 518.13 307.75 524.87 303.86 490.39 283.95 483.64 287.85"/><polygon class="cls-9" points="497.44 278.98 531.94 298.88 538.68 294.99 504.2 275.08 497.44 278.98"/><polygon class="cls-9" points="511.25 270.11 545.75 290.01 552.49 286.12 518.01 266.2 511.25 270.11"/><polygon class="cls-9" points="525.06 261.24 559.55 281.14 566.29 277.25 531.81 257.33 525.06 261.24"/><polygon class="cls-9" points="295.46 228.25 329.96 248.15 336.69 244.26 302.22 224.34 295.46 228.25"/><polygon class="cls-9" points="309.27 219.38 343.76 239.28 350.5 235.39 316.02 215.47 309.27 219.38"/><polygon class="cls-9" points="323.07 210.51 357.57 230.41 364.31 226.52 329.83 206.6 323.07 210.51"/><polygon class="cls-9" points="336.88 201.63 371.38 221.53 378.11 217.65 343.64 197.73 336.88 201.63"/><polygon class="cls-9" points="350.69 192.76 385.18 212.66 391.92 208.77 357.44 188.86 350.69 192.76"/><polygon class="cls-9" points="364.49 183.89 398.99 203.79 405.73 199.9 371.25 179.99 364.49 183.89"/><polygon class="cls-9" points="378.3 175.02 412.8 194.92 419.54 191.03 385.06 171.11 378.3 175.02"/><polygon class="cls-9" points="564.35 231.05 529.85 250.96 523.11 247.06 557.59 227.15 564.35 231.05"/><polygon class="cls-9" points="550.54 222.18 516.04 242.08 509.31 238.19 543.78 218.28 550.54 222.18"/><polygon class="cls-9" points="536.73 213.31 502.24 233.21 495.5 229.32 529.98 209.41 536.73 213.31"/><polygon class="cls-9" points="522.92 204.44 488.43 224.34 481.69 220.45 516.17 200.53 522.92 204.44"/><polygon class="cls-9" points="509.12 195.57 474.62 215.47 467.89 211.58 502.36 191.66 509.12 195.57"/><polygon class="cls-9" points="495.31 186.7 460.82 206.6 454.08 202.71 488.56 182.79 495.31 186.7"/><polygon class="cls-9" points="481.51 177.83 447.01 197.73 440.27 193.84 474.75 173.92 481.51 177.83"/><polygon class="cls-9" points="422.01 314.47 387.51 334.37 380.77 330.48 415.25 310.56 422.01 314.47"/><polygon class="cls-9" points="408.2 305.6 373.71 325.5 366.97 321.61 401.45 301.69 408.2 305.6"/><polygon class="cls-9" points="394.39 296.72 359.9 316.63 353.16 312.74 387.64 292.82 394.39 296.72"/><polygon class="cls-9" points="380.59 287.85 346.09 307.75 339.36 303.86 373.83 283.95 380.59 287.85"/><polygon class="cls-9" points="366.78 278.98 332.29 298.88 325.55 294.99 360.03 275.08 366.78 278.98"/><polygon class="cls-9" points="352.98 270.11 318.48 290.01 311.74 286.12 346.22 266.2 352.98 270.11"/><polygon class="cls-9" points="339.17 261.24 304.67 281.14 297.94 277.25 332.41 257.33 339.17 261.24"/></svg>