<svg id="Слой_1" data-name="Слой 1" xmlns="http://www.w3.org/2000/svg" viewBox="0 0 60.23 26.52"><defs><style>.cls-1{fill:#ccc;}.cls-2{fill:#6d6d69;}.cls-3{fill:#b8bbb2;}.cls-4{fill:#464749;}.cls-5{fill:#b26000;}.cls-6{fill:#f3bb44;}.cls-7{fill:#836e1f;}.cls-8{fill:#e5cd65;}.cls-9{fill:#eae5df;}</style></defs><polygon class="cls-1" points="33.06 1.74 30.15 3.46 27.14 1.71 30.04 0 33.06 1.74"/><polygon class="cls-2" points="30.15 3.44 30.15 3.81 27.13 2.07 27.13 1.71 30.15 3.44"/><polygon class="cls-2" points="33.06 2.1 33.06 1.74 30.15 3.44 30.15 3.83 33.06 2.1"/><polygon class="cls-1" points="30.19 3.57 33.12 5.35 36.13 3.61 36.13 3.54 33.21 1.83 30.19 3.57"/><polygon class="cls-2" points="33.14 5.27 33.14 5.65 36.15 3.91 36.15 3.54 33.14 5.27"/><polygon class="cls-1" points="33.24 5.33 36.15 7.07 39.17 5.32 39.17 5.25 36.28 3.57 33.24 5.33"/><polygon class="cls-2" points="36.15 6.99 36.15 7.36 39.17 5.62 39.17 5.25 36.15 6.99"/><polygon class="cls-1" points="36.27 7.05 39.15 8.8 42.17 7.06 42.17 6.99 39.28 5.31 36.27 7.05"/><polygon class="cls-2" points="39.15 8.72 39.15 9.1 42.17 7.36 42.17 6.99 39.15 8.72"/><polygon class="cls-1" points="39.24 8.81 42.17 10.59 45.19 8.85 45.19 8.78 42.26 7.07 39.24 8.81"/><polygon class="cls-2" points="42.19 10.51 42.19 10.88 45.21 9.14 45.21 8.78 42.19 10.51"/><polygon class="cls-1" points="42.32 10.55 45.21 12.3 48.23 10.56 48.23 10.49 45.34 8.81 42.32 10.55"/><polygon class="cls-3" points="42.32 10.91 42.32 10.55 45.21 12.22 45.21 12.6 42.32 10.91"/><polygon class="cls-2" points="45.21 12.22 45.21 12.6 48.23 10.86 48.23 10.49 45.21 12.22"/><polygon class="cls-1" points="45.32 12.29 48.21 14.04 51.23 12.3 51.23 12.23 48.34 10.55 45.32 12.29"/><polygon class="cls-3" points="45.32 12.65 45.32 12.29 48.21 13.96 48.21 14.34 45.32 12.65"/><polygon class="cls-2" points="48.21 13.96 48.21 14.34 51.23 12.59 51.23 12.23 48.21 13.96"/><polygon class="cls-1" points="48.32 14.03 51.21 15.78 54.23 14.04 54.23 13.97 51.34 12.29 48.32 14.03"/><polygon class="cls-3" points="48.32 14.39 48.32 14.03 51.21 15.7 51.21 16.07 48.32 14.39"/><polygon class="cls-2" points="51.21 15.7 51.21 16.07 54.23 14.33 54.23 13.97 51.21 15.7"/><polygon class="cls-1" points="51.33 15.77 54.21 17.52 57.23 15.78 57.23 15.71 54.34 14.03 51.33 15.77"/><polygon class="cls-3" points="51.33 16.13 51.33 15.76 54.21 17.44 54.21 17.81 51.33 16.13"/><polygon class="cls-2" points="54.21 17.44 54.21 17.81 57.23 16.07 57.23 15.71 54.21 17.44"/><polygon class="cls-1" points="54.33 17.51 57.21 19.26 60.23 17.52 60.23 17.44 57.34 15.77 54.33 17.51"/><polygon class="cls-3" points="54.33 17.87 54.33 17.5 57.22 19.18 57.22 19.55 54.33 17.87"/><polygon class="cls-2" points="57.22 19.18 57.22 19.55 60.23 17.81 60.23 17.44 57.22 19.18"/><polygon class="cls-1" points="30.04 3.55 27.11 5.33 24.1 3.59 24.1 3.52 27.03 1.8 30.04 3.55"/><polygon class="cls-2" points="27.09 5.25 27.09 5.62 24.08 3.88 24.08 3.51 27.09 5.25"/><polygon class="cls-1" points="26.97 5.29 24.08 7.04 21.06 5.3 21.06 5.23 23.95 3.55 26.97 5.29"/><polygon class="cls-2" points="24.08 6.96 24.08 7.33 21.06 5.59 21.06 5.23 24.08 6.96"/><polygon class="cls-1" points="23.96 7.03 21.08 8.78 18.06 7.04 18.06 6.96 20.95 5.29 23.96 7.03"/><polygon class="cls-2" points="21.08 8.7 21.08 9.07 18.06 7.33 18.06 6.96 21.08 8.7"/><polygon class="cls-1" points="20.99 8.78 18.06 10.56 15.04 8.82 15.04 8.75 17.97 7.04 20.99 8.78"/><polygon class="cls-2" points="18.04 10.48 18.04 10.86 15.02 9.12 15.02 8.75 18.04 10.48"/><polygon class="cls-4" points="38.5 8.87 23.5 17.56 23.36 17.48 20.33 15.73 19.07 15 18.92 14.91 18.84 14.87 18.84 14.87 18.69 14.78 18.69 14.78 17.41 14.04 15.23 12.77 15.08 12.69 30.27 4.11 38.5 8.87"/><polygon class="cls-5" points="30.02 3.89 18.02 10.62 18.02 10.62 18.02 10.62 18.34 11.01 30.02 4.24 30.02 3.89"/><polygon class="cls-6" points="30.02 3.88 30.15 3.81 30.01 3.56 29.73 3.71 30.02 3.88"/><polygon class="cls-6" points="29.82 3.66 18.02 10.46 18.02 10.46 18.02 10.46 18.34 10.64 18.34 10.64 30.02 3.88 29.82 3.66"/><polygon class="cls-7" points="18.02 10.46 18.34 10.64 18.34 11.01 18.02 10.83 18.02 10.46"/><path class="cls-5" d="M50.08,50.66,47,52.45h0l.32.39,2.79-1.62C50.07,51,50.08,50.85,50.08,50.66Z" transform="translate(-20.19 -36.78)"/><polygon class="cls-6" points="30.09 13.58 26.78 15.51 26.77 15.51 26.77 15.51 27.1 15.7 27.1 15.7 30.42 13.77 30.09 13.58"/><polygon class="cls-7" points="26.77 15.51 27.1 15.7 27.1 16.06 26.77 15.88 26.77 15.51"/><polygon class="cls-1" points="33.11 15.71 30.12 17.51 27.1 15.77 27.1 15.7 30.09 13.96 33.11 15.71"/><polygon class="cls-2" points="33.11 16.06 33.11 15.7 30.12 17.43 30.12 17.8 33.11 16.06"/><polygon class="cls-2" points="30.12 17.43 30.12 17.8 27.1 16.06 27.1 15.7 30.12 17.43"/><polygon class="cls-1" points="17.91 10.53 15.02 12.28 12.01 10.54 12.01 10.46 14.89 8.78 17.91 10.53"/><polygon class="cls-3" points="17.91 10.89 17.91 10.52 15.02 12.2 15.02 12.57 17.91 10.89"/><polygon class="cls-2" points="15.02 12.2 15.02 12.57 12.01 10.83 12.01 10.46 15.02 12.2"/><polygon class="cls-1" points="14.91 12.27 12.02 14.01 9 12.27 9 12.2 11.89 10.52 14.91 12.27"/><polygon class="cls-3" points="14.91 12.62 14.91 12.26 12.02 13.94 12.02 14.31 14.91 12.62"/><polygon class="cls-2" points="12.02 13.94 12.02 14.31 9 12.57 9 12.2 12.02 13.94"/><polygon class="cls-1" points="11.91 14 9.02 15.75 6 14.01 6 13.94 8.89 12.26 11.91 14"/><polygon class="cls-3" points="11.91 14.36 11.91 14 9.02 15.67 9.02 16.05 11.91 14.36"/><polygon class="cls-2" points="9.02 15.67 9.02 16.05 6 14.3 6 13.94 9.02 15.67"/><polygon class="cls-1" points="8.91 15.74 6.02 17.49 3 15.75 3 15.68 5.89 14 8.91 15.74"/><polygon class="cls-3" points="8.91 16.1 8.91 15.74 6.02 17.41 6.02 17.78 8.91 16.1"/><polygon class="cls-2" points="6.02 17.41 6.02 17.78 3 16.04 3 15.68 6.02 17.41"/><polygon class="cls-1" points="5.91 17.48 3.02 19.23 0 17.49 0 17.42 2.89 15.74 5.91 17.48"/><polygon class="cls-3" points="5.91 17.84 5.91 17.47 3.02 19.15 3.02 19.52 5.91 17.84"/><polygon class="cls-2" points="3.02 19.15 3.02 19.52 0 17.78 0 17.42 3.02 19.15"/><polygon class="cls-4" points="26.77 15.67 11.77 24.36 11.62 24.27 8.6 22.53 7.34 21.8 7.18 21.71 7.11 21.66 7.11 21.66 6.96 21.58 6.96 21.58 5.67 20.84 3.5 19.57 3.35 19.48 18.53 10.9 26.77 15.67"/><polygon class="cls-4" points="26.48 15.5 11.5 24.18 11.48 24.19 7.34 21.8 7.19 21.71 7.11 21.66 6.96 21.58 6.96 21.58 3.6 19.63 3.62 19.61 18.6 10.94 21.96 12.89 21.96 12.89 22.11 12.98 22.18 13.02 22.34 13.11 26.48 15.5"/><polygon class="cls-8" points="22.11 12.98 7.13 21.65 7.11 21.66 7.11 21.66 7.11 21.66 6.96 21.58 6.96 21.58 6.96 21.58 6.98 21.57 21.96 12.89 21.96 12.89 22.11 12.98"/><polygon class="cls-8" points="22.34 13.11 7.36 21.78 7.34 21.8 7.34 21.8 7.19 21.71 7.19 21.71 7.19 21.71 7.21 21.7 22.18 13.02 22.34 13.11"/><polygon class="cls-5" points="18.34 11.01 3.34 19.7 3.02 19.31 3.02 19.31 3.02 19.31 12.07 14.08 12.07 14.08 12.07 14.08 12.12 14.11 18.34 10.64 18.34 11.01"/><polygon class="cls-6" points="18.34 10.64 3.34 19.33 3.34 19.33 3.02 19.15 3.02 19.15 3.02 19.15 18.02 10.46 18.34 10.64"/><polygon class="cls-7" points="3.02 19.15 3.34 19.33 3.34 19.7 3.02 19.52 3.02 19.15"/><polygon class="cls-5" points="27.16 16.03 12.1 24.75 11.77 24.36 11.77 24.36 11.78 24.36 20.82 19.14 20.83 19.14 20.83 19.14 20.88 19.16 27.07 15.72 27.16 16.03"/><polygon class="cls-6" points="27.1 15.7 12.1 24.38 12.1 24.39 11.77 24.2 11.78 24.2 11.78 24.2 26.77 15.51 27.1 15.7"/><polygon class="cls-7" points="11.78 24.2 12.1 24.39 12.1 24.75 11.77 24.57 11.78 24.2"/><polygon class="cls-1" points="30.01 17.5 27.12 19.24 24.11 17.5 24.11 17.43 26.99 15.75 30.01 17.5"/><polygon class="cls-3" points="30.01 17.85 30.01 17.49 27.12 19.16 27.12 19.54 30.01 17.85"/><polygon class="cls-2" points="27.12 19.16 27.12 19.54 24.11 17.8 24.11 17.43 27.12 19.16"/><polygon class="cls-1" points="27.01 19.23 24.12 20.98 21.11 19.24 21.11 19.17 23.99 17.49 27.01 19.23"/><polygon class="cls-3" points="27.01 19.59 27.01 19.23 24.12 20.9 24.12 21.27 27.01 19.59"/><polygon class="cls-2" points="24.12 20.9 24.12 21.27 21.11 19.53 21.11 19.17 24.12 20.9"/><polygon class="cls-1" points="24.01 20.97 21.12 22.72 18.1 20.98 18.1 20.91 20.99 19.23 24.01 20.97"/><polygon class="cls-3" points="24.01 21.33 24.01 20.96 21.12 22.64 21.12 23.01 24.01 21.33"/><polygon class="cls-2" points="21.12 22.64 21.12 23.01 18.1 21.27 18.1 20.91 21.12 22.64"/><polygon class="cls-1" points="21.01 22.71 18.12 24.46 15.1 22.72 15.1 22.65 17.99 20.97 21.01 22.71"/><polygon class="cls-3" points="21.01 23.07 21.01 22.7 18.12 24.38 18.12 24.75 21.01 23.07"/><polygon class="cls-2" points="18.12 24.38 18.12 24.75 15.1 23.01 15.1 22.65 18.12 24.38"/><polygon class="cls-1" points="18.01 24.45 15.12 26.2 12.1 24.45 12.1 24.39 14.99 22.7 18.01 24.45"/><polygon class="cls-3" points="18.01 24.81 18.01 24.44 15.12 26.12 15.12 26.49 18.01 24.81"/><polygon class="cls-2" points="15.12 26.12 15.12 26.49 12.1 24.75 12.1 24.38 15.12 26.12"/><polygon class="cls-4" points="33.46 15.7 48.46 24.39 48.61 24.3 51.63 22.55 52.9 21.82 53.05 21.74 53.13 21.69 53.13 21.69 53.27 21.61 53.27 21.61 54.56 20.86 56.73 19.59 56.88 19.51 41.7 10.93 33.46 15.7"/><polygon class="cls-4" points="30.22 13.68 48.73 24.2 48.75 24.21 52.89 21.82 53.04 21.74 53.12 21.69 53.27 21.61 53.27 21.61 56.63 19.65 56.61 19.64 38.5 8.87 30.22 13.68"/><polygon class="cls-8" points="38.13 13 53.1 21.68 53.12 21.69 53.13 21.69 53.13 21.69 53.27 21.61 53.27 21.61 53.27 21.61 53.25 21.59 38.28 12.92 38.27 12.92 38.13 13"/><polygon class="cls-8" points="37.9 13.14 52.87 21.81 52.89 21.82 52.9 21.83 53.05 21.74 53.05 21.74 53.04 21.74 53.02 21.73 38.05 13.05 37.9 13.14"/><polygon class="cls-5" points="57.22 19.33 57.21 19.33 48.17 14.11 48.16 14.11 48.16 14.11 48.11 14.14 30.02 3.88 30.02 4.25 56.89 19.73 57.22 19.33 57.22 19.33"/><polygon class="cls-6" points="29.73 3.71 56.89 19.36 56.89 19.36 57.22 19.18 57.21 19.18 57.21 19.18 30.1 3.51 29.73 3.71"/><polygon class="cls-7" points="57.21 19.18 56.89 19.36 56.89 19.73 57.22 19.55 57.21 19.18"/><polygon class="cls-5" points="33.08 16.06 48.14 24.78 48.46 24.39 48.46 24.39 48.46 24.39 39.41 19.16 39.41 19.16 39.4 19.16 39.35 19.19 33.16 15.74 33.08 16.06"/><polygon class="cls-6" points="29.76 13.76 48.13 24.41 48.13 24.41 48.46 24.23 48.46 24.23 48.45 24.23 30.09 13.58 29.76 13.76"/><polygon class="cls-7" points="48.46 24.23 48.13 24.41 48.14 24.78 48.46 24.59 48.46 24.23"/><polygon class="cls-1" points="30.22 17.52 33.11 19.27 36.13 17.53 36.13 17.46 33.24 15.78 30.22 17.52"/><polygon class="cls-3" points="30.22 17.88 30.22 17.52 33.11 19.19 33.11 19.56 30.22 17.88"/><polygon class="cls-2" points="33.11 19.19 33.11 19.56 36.13 17.82 36.13 17.46 33.11 19.19"/><polygon class="cls-1" points="33.22 19.26 36.11 21.01 39.13 19.27 39.13 19.2 36.24 17.52 33.22 19.26"/><polygon class="cls-3" points="33.22 19.62 33.22 19.25 36.11 20.93 36.11 21.3 33.22 19.62"/><polygon class="cls-2" points="36.11 20.93 36.11 21.3 39.13 19.56 39.13 19.2 36.11 20.93"/><polygon class="cls-1" points="36.22 21 39.11 22.75 42.13 21.01 42.13 20.93 39.24 19.25 36.22 21"/><polygon class="cls-3" points="36.22 21.36 36.22 20.99 39.11 22.67 39.11 23.04 36.22 21.36"/><polygon class="cls-2" points="39.11 22.67 39.11 23.04 42.13 21.3 42.13 20.93 39.11 22.67"/><polygon class="cls-1" points="39.23 22.74 42.11 24.48 45.13 22.74 45.13 22.67 42.24 20.99 39.23 22.74"/><polygon class="cls-3" points="39.23 23.09 39.23 22.73 42.11 24.41 42.11 24.78 39.23 23.09"/><polygon class="cls-2" points="42.11 24.41 42.11 24.78 45.13 23.04 45.13 22.67 42.11 24.41"/><polygon class="cls-1" points="42.23 24.48 45.11 26.22 48.13 24.48 48.13 24.41 45.24 22.73 42.23 24.48"/><polygon class="cls-3" points="42.23 24.83 42.23 24.47 45.11 26.14 45.11 26.52 42.23 24.83"/><polygon class="cls-2" points="45.11 26.14 45.11 26.52 48.13 24.78 48.13 24.41 45.11 26.14"/><polygon class="cls-9" points="30.73 12.96 33.13 14.34 33.6 14.07 31.2 12.69 30.73 12.96"/><polygon class="cls-9" points="31.69 12.34 34.1 13.73 34.56 13.46 32.16 12.07 31.69 12.34"/><polygon class="cls-9" points="32.66 11.72 35.06 13.11 35.53 12.84 33.13 11.45 32.66 11.72"/><polygon class="cls-9" points="33.62 11.11 36.02 12.49 36.49 12.22 34.09 10.83 33.62 11.11"/><polygon class="cls-9" points="34.58 10.49 36.98 11.87 37.45 11.6 35.05 10.22 34.58 10.49"/><polygon class="cls-9" points="35.54 9.87 37.94 11.26 38.41 10.98 36.01 9.6 35.54 9.87"/><polygon class="cls-9" points="36.5 9.25 38.9 10.64 39.37 10.37 36.97 8.98 36.5 9.25"/><polygon class="cls-9" points="29.32 12.96 26.92 14.34 26.45 14.07 28.85 12.69 29.32 12.96"/><polygon class="cls-9" points="28.36 12.34 25.96 13.73 25.49 13.46 27.89 12.07 28.36 12.34"/><polygon class="cls-9" points="27.4 11.72 25 13.11 24.53 12.84 26.93 11.45 27.4 11.72"/><polygon class="cls-9" points="26.44 11.11 24.04 12.49 23.57 12.22 25.97 10.83 26.44 11.11"/><polygon class="cls-9" points="25.48 10.49 23.08 11.87 22.61 11.6 25.01 10.22 25.48 10.49"/><polygon class="cls-9" points="24.52 9.87 22.11 11.26 21.65 10.98 24.05 9.6 24.52 9.87"/><polygon class="cls-9" points="23.56 9.25 21.15 10.64 20.68 10.37 23.09 8.98 23.56 9.25"/></svg>