<svg id="Слой_1" data-name="Слой 1" xmlns="http://www.w3.org/2000/svg" viewBox="0 0 45.13 35.17"><defs><style>.cls-1{fill:#ccc;}.cls-2{fill:#6d6d69;}.cls-3{fill:#b8bbb2;}.cls-4{fill:#464749;}.cls-5{fill:#e5cd65;}.cls-6{fill:#b26000;}.cls-7{fill:#f3bb44;}.cls-8{fill:#836e1f;}.cls-9{fill:#eae5df;}</style></defs><polygon class="cls-1" points="12.1 1.74 15.03 3.52 18.05 1.78 18.05 1.71 15.12 0 12.1 1.74"/><polygon class="cls-2" points="15.05 3.44 15.05 3.82 18.07 2.08 18.07 1.71 15.05 3.44"/><polygon class="cls-1" points="15.16 3.5 18.07 5.24 21.08 3.49 21.08 3.42 18.2 1.74 15.16 3.5"/><polygon class="cls-2" points="18.07 5.16 18.07 5.53 21.08 3.79 21.08 3.42 18.07 5.16"/><polygon class="cls-1" points="18.18 5.22 21.07 6.97 24.08 5.23 24.08 5.16 21.2 3.48 18.18 5.22"/><polygon class="cls-2" points="21.07 6.89 21.07 7.27 24.09 5.53 24.09 5.16 21.07 6.89"/><polygon class="cls-1" points="21.16 6.98 24.09 8.76 27.1 7.02 27.1 6.95 24.18 5.24 21.16 6.98"/><polygon class="cls-2" points="24.11 8.68 24.11 9.05 27.12 7.31 27.12 6.95 24.11 8.68"/><polygon class="cls-1" points="24.23 8.72 27.12 10.47 30.14 8.73 30.14 8.66 27.25 6.98 24.23 8.72"/><polygon class="cls-3" points="24.23 9.08 24.23 8.72 27.12 10.39 27.12 10.77 24.23 9.08"/><polygon class="cls-2" points="27.12 10.39 27.12 10.77 30.14 9.02 30.14 8.66 27.12 10.39"/><polygon class="cls-1" points="27.24 10.46 30.12 12.21 33.14 10.47 33.14 10.4 30.25 8.72 27.24 10.46"/><polygon class="cls-3" points="27.24 10.82 27.24 10.46 30.12 12.13 30.13 12.5 27.24 10.82"/><polygon class="cls-2" points="30.12 12.13 30.13 12.5 33.14 10.76 33.14 10.4 30.12 12.13"/><polygon class="cls-1" points="30.24 12.2 33.13 13.95 36.14 12.21 36.14 12.14 33.26 10.46 30.24 12.2"/><polygon class="cls-3" points="30.24 12.56 30.24 12.19 33.13 13.87 33.13 14.24 30.24 12.56"/><polygon class="cls-2" points="33.13 13.87 33.13 14.24 36.14 12.5 36.14 12.14 33.13 13.87"/><polygon class="cls-1" points="33.24 13.94 36.13 15.69 39.14 13.95 39.14 13.88 36.26 12.2 33.24 13.94"/><polygon class="cls-3" points="33.24 14.3 33.24 13.93 36.13 15.61 36.13 15.98 33.24 14.3"/><polygon class="cls-2" points="36.13 15.61 36.13 15.98 39.14 14.24 39.14 13.88 36.13 15.61"/><polygon class="cls-1" points="36.24 15.68 39.13 17.43 42.14 15.68 42.14 15.61 39.26 13.93 36.24 15.68"/><polygon class="cls-3" points="36.24 16.04 36.24 15.67 39.13 17.35 39.13 17.72 36.24 16.04"/><polygon class="cls-2" points="39.13 17.35 39.13 17.72 42.15 15.98 42.15 15.61 39.13 17.35"/><polygon class="cls-4" points="3.24 6.88 18.24 15.57 18.39 15.49 21.41 13.74 22.68 13.01 22.83 12.93 22.9 12.88 22.91 12.88 23.05 12.79 23.05 12.79 24.34 12.05 26.51 10.78 26.66 10.7 11.48 2.12 3.24 6.88"/><polygon class="cls-4" points="3.53 6.71 21.7 17.79 33.71 24.37 42.09 19.5 11.68 2.05 8.05 4.11 8.05 4.11 7.9 4.19 7.83 4.24 7.68 4.33 3.53 6.71"/><polygon class="cls-5" points="7.9 4.19 22.88 12.87 22.9 12.88 22.9 12.88 22.91 12.88 23.05 12.79 23.05 12.79 23.05 12.79 23.03 12.78 8.05 4.11 8.05 4.11 7.9 4.19"/><polygon class="cls-5" points="7.68 4.33 22.65 13 22.67 13.01 22.68 13.02 22.82 12.93 22.82 12.93 22.82 12.93 22.8 12.91 7.83 4.24 7.68 4.33"/><polygon class="cls-1" points="0 8.71 2.89 10.46 5.9 8.72 5.9 8.65 3.02 6.97 0 8.71"/><polygon class="cls-3" points="0 9.07 0 8.7 2.89 10.38 2.89 10.75 0 9.07"/><polygon class="cls-2" points="2.89 10.38 2.89 10.75 5.91 9.01 5.91 8.65 2.89 10.38"/><polygon class="cls-1" points="3 10.45 5.89 12.2 8.91 10.46 8.91 10.39 6.02 8.71 3 10.45"/><polygon class="cls-3" points="3 10.81 3 10.44 5.89 12.12 5.89 12.49 3 10.81"/><polygon class="cls-2" points="5.89 12.12 5.89 12.49 8.91 10.75 8.91 10.38 5.89 12.12"/><polygon class="cls-1" points="6 12.19 8.89 13.94 11.91 12.19 11.91 12.12 9.02 10.44 6 12.19"/><polygon class="cls-3" points="6 12.54 6 12.18 8.89 13.86 8.89 14.23 6 12.54"/><polygon class="cls-2" points="8.89 13.86 8.89 14.23 11.91 12.49 11.91 12.12 8.89 13.86"/><polygon class="cls-1" points="9 13.93 11.89 15.67 14.91 13.93 14.91 13.86 12.02 12.18 9 13.93"/><polygon class="cls-3" points="9 14.28 9 13.92 11.89 15.59 11.89 15.97 9 14.28"/><polygon class="cls-2" points="11.89 15.59 11.89 15.97 14.91 14.23 14.91 13.86 11.89 15.59"/><polygon class="cls-1" points="12.01 15.66 14.89 17.41 17.91 15.67 17.91 15.6 15.02 13.92 12.01 15.66"/><polygon class="cls-3" points="12.01 16.02 12.01 15.66 14.89 17.33 14.89 17.71 12.01 16.02"/><polygon class="cls-2" points="14.89 17.33 14.89 17.71 17.91 15.96 17.91 15.6 14.89 17.33"/><polygon class="cls-1" points="21.07 17.45 18.14 19.23 15.12 17.49 15.12 17.42 18.05 15.71 21.07 17.45"/><polygon class="cls-2" points="18.12 19.15 18.12 19.52 15.1 17.78 15.1 17.42 18.12 19.15"/><polygon class="cls-4" points="38.55 17.43 26.89 24.34 26.74 24.26 23.71 22.51 22.45 21.79 22.3 21.7 22.22 21.65 22.22 21.65 22.07 21.57 22.07 21.57 20.79 20.82 18.61 19.55 18.46 19.47 30.14 12.92 38.55 17.43"/><polygon class="cls-4" points="37.24 18.18 26.62 24.16 26.6 24.17 22.45 21.78 22.3 21.7 22.22 21.65 22.08 21.56 22.07 21.56 18.71 19.61 18.74 19.6 29.57 13.19 37.24 18.18"/><polygon class="cls-6" points="21.7 17.43 18.13 19.29 18.13 19.29 18.13 19.29 18.45 19.68 21.7 17.79 21.7 17.43"/><polygon class="cls-7" points="21.4 17.26 18.13 19.13 18.13 19.13 18.13 19.14 18.45 19.32 18.46 19.32 21.7 17.43 21.4 17.26"/><polygon class="cls-6" points="30.43 22.75 39.22 17.77 39.22 17.39 30.43 22.34 30.43 22.75"/><path class="cls-6" d="M57.75,55,54.63,56.8h0l.32.39,2.79-1.62C57.74,55.39,57.74,55.2,57.75,55Z" transform="translate(-27.74 -32.46)"/><polygon class="cls-7" points="30.52 22.44 39.22 17.39 38.9 17.21 30.2 22.25 30.52 22.44"/><polygon class="cls-7" points="30.2 22.25 26.89 24.19 26.89 24.19 26.89 24.19 27.21 24.37 27.21 24.37 30.54 22.45 30.2 22.25"/><polygon class="cls-8" points="26.89 24.19 27.21 24.37 27.21 24.74 26.89 24.55 26.89 24.19"/><polygon class="cls-1" points="45.13 17.48 42.49 19.08 39.48 17.34 39.48 17.26 42.11 15.74 45.13 17.48"/><polygon class="cls-3" points="45.13 17.84 45.13 17.48 42.49 19 42.49 19.37 45.13 17.84"/><polygon class="cls-2" points="42.49 19 42.49 19.37 39.48 17.63 39.48 17.26 42.49 19"/><polygon class="cls-1" points="42.36 19.1 39.5 20.81 36.49 19.07 36.49 19 39.32 17.36 42.36 19.1"/><polygon class="cls-3" points="42.36 19.46 42.36 19.09 39.5 20.73 39.5 21.1 42.36 19.46"/><polygon class="cls-2" points="39.5 20.73 39.5 21.1 36.49 19.36 36.49 19 39.5 20.73"/><polygon class="cls-1" points="39.4 20.8 36.41 22.6 33.4 20.86 33.4 20.79 36.38 19.05 39.4 20.8"/><polygon class="cls-3" points="39.4 21.16 39.4 20.79 36.41 22.52 36.41 22.89 39.4 21.16"/><polygon class="cls-2" points="36.41 22.52 36.41 22.89 33.4 21.15 33.4 20.79 36.41 22.52"/><polygon class="cls-1" points="36.31 22.59 33.32 24.39 30.31 22.65 30.31 22.58 33.29 20.85 36.31 22.59"/><polygon class="cls-3" points="36.31 22.95 36.31 22.58 33.32 24.31 33.32 24.68 36.31 22.95"/><polygon class="cls-2" points="33.32 24.31 33.32 24.68 30.3 22.94 30.3 22.58 33.32 24.31"/><polygon class="cls-1" points="33.22 24.38 30.23 26.18 27.22 24.44 27.22 24.37 30.2 22.64 33.22 24.38"/><polygon class="cls-3" points="33.22 24.74 33.22 24.37 30.23 26.1 30.23 26.48 33.22 24.74"/><polygon class="cls-2" points="30.23 26.1 30.23 26.48 27.21 24.73 27.21 24.37 30.23 26.1"/><polygon class="cls-1" points="18.02 19.2 15.14 20.95 12.12 19.21 12.12 19.14 15.01 17.46 18.02 19.2"/><polygon class="cls-3" points="18.02 19.56 18.02 19.2 15.14 20.87 15.14 21.24 18.02 19.56"/><polygon class="cls-2" points="15.14 20.87 15.14 21.24 12.12 19.5 12.12 19.14 15.14 20.87"/><polygon class="cls-1" points="15.02 20.94 12.13 22.69 9.12 20.95 9.12 20.88 12.01 19.2 15.02 20.94"/><polygon class="cls-3" points="15.02 21.3 15.02 20.93 12.13 22.61 12.13 22.98 15.02 21.3"/><polygon class="cls-2" points="12.13 22.61 12.13 22.98 9.12 21.24 9.12 20.88 12.13 22.61"/><polygon class="cls-1" points="12.02 22.68 9.13 24.43 6.12 22.69 6.12 22.62 9 20.94 12.02 22.68"/><polygon class="cls-3" points="12.02 23.04 12.02 22.67 9.13 24.35 9.13 24.72 12.02 23.04"/><polygon class="cls-2" points="9.13 24.35 9.13 24.72 6.12 22.98 6.12 22.61 9.13 24.35"/><polygon class="cls-1" points="9.02 24.42 6.13 26.17 3.12 24.43 3.12 24.35 6 22.67 9.02 24.42"/><polygon class="cls-3" points="9.02 24.77 9.02 24.41 6.13 26.09 6.13 26.46 9.02 24.77"/><polygon class="cls-2" points="6.13 26.09 6.13 26.46 3.12 24.72 3.12 24.35 6.13 26.09"/><polygon class="cls-1" points="6.02 26.16 3.13 27.9 0.12 26.16 0.12 26.09 3 24.41 6.02 26.16"/><polygon class="cls-3" points="6.02 26.51 6.02 26.15 3.13 27.82 3.13 28.2 6.02 26.51"/><polygon class="cls-2" points="3.13 27.82 3.13 28.2 0.11 26.46 0.11 26.09 3.13 27.82"/><polygon class="cls-4" points="26.89 24.34 11.88 33.03 11.74 32.95 8.71 31.2 7.45 30.47 7.3 30.39 7.22 30.34 7.22 30.34 7.07 30.25 7.07 30.25 5.79 29.51 3.61 28.24 3.46 28.16 18.65 19.58 26.89 24.34"/><polygon class="cls-4" points="26.6 24.17 11.62 32.85 11.6 32.86 7.45 30.47 7.3 30.39 7.22 30.34 7.08 30.25 7.08 30.25 3.71 28.3 3.74 28.29 18.71 19.61 22.07 21.57 22.07 21.57 22.22 21.65 22.3 21.7 22.45 21.79 26.6 24.17"/><polygon class="cls-5" points="22.22 21.65 7.25 30.32 7.22 30.34 7.22 30.34 7.22 30.34 7.07 30.25 7.08 30.25 7.08 30.25 7.1 30.24 22.07 21.57 22.07 21.57 22.22 21.65"/><polygon class="cls-5" points="22.45 21.79 7.48 30.46 7.45 30.47 7.45 30.47 7.3 30.39 7.3 30.39 7.3 30.39 7.33 30.37 22.3 21.7 22.45 21.79"/><polygon class="cls-6" points="18.46 19.68 3.45 28.37 3.13 27.98 3.13 27.98 3.13 27.98 12.18 22.76 12.18 22.76 12.19 22.76 12.23 22.79 18.46 19.32 18.46 19.68"/><polygon class="cls-7" points="18.46 19.32 3.46 28.01 3.46 28.01 3.13 27.82 3.13 27.82 3.13 27.82 18.13 19.13 18.46 19.32"/><polygon class="cls-8" points="3.13 27.82 3.46 28.01 3.45 28.37 3.13 28.2 3.13 27.82"/><polygon class="cls-6" points="27.27 24.71 12.21 33.43 11.89 33.04 11.89 33.03 11.89 33.03 20.94 27.81 20.94 27.81 20.94 27.81 20.99 27.84 27.19 24.39 27.27 24.71"/><polygon class="cls-7" points="27.21 24.37 12.22 33.06 12.21 33.06 11.89 32.88 11.89 32.88 11.89 32.88 26.89 24.19 27.21 24.37"/><polygon class="cls-8" points="11.89 32.88 12.21 33.06 12.21 33.43 11.89 33.24 11.89 32.88"/><polygon class="cls-1" points="30.13 26.17 27.24 27.92 24.22 26.18 24.22 26.11 27.11 24.43 30.13 26.17"/><polygon class="cls-3" points="30.13 26.53 30.13 26.16 27.24 27.84 27.24 28.21 30.13 26.53"/><polygon class="cls-2" points="27.24 27.84 27.24 28.21 24.22 26.47 24.22 26.11 27.24 27.84"/><polygon class="cls-1" points="27.12 27.91 24.24 29.66 21.22 27.92 21.22 27.84 24.11 26.16 27.12 27.91"/><polygon class="cls-3" points="27.12 28.27 27.12 27.9 24.24 29.58 24.24 29.95 27.12 28.27"/><polygon class="cls-2" points="24.24 29.58 24.24 29.95 21.22 28.21 21.22 27.84 24.24 29.58"/><polygon class="cls-1" points="24.12 29.65 21.23 31.39 18.22 29.65 18.22 29.58 21.11 27.9 24.12 29.65"/><polygon class="cls-3" points="24.12 30 24.12 29.64 21.23 31.32 21.23 31.69 24.12 30"/><polygon class="cls-2" points="21.23 31.32 21.23 31.69 18.22 29.95 18.22 29.58 21.23 31.32"/><polygon class="cls-1" points="21.12 31.38 18.23 33.13 15.22 31.39 15.22 31.32 18.1 29.64 21.12 31.38"/><polygon class="cls-3" points="21.12 31.74 21.12 31.38 18.23 33.05 18.23 33.43 21.12 31.74"/><polygon class="cls-2" points="18.23 33.05 18.23 33.43 15.22 31.69 15.22 31.32 18.23 33.05"/><polygon class="cls-1" points="18.12 33.12 15.23 34.87 12.22 33.13 12.22 33.06 15.1 31.38 18.12 33.12"/><polygon class="cls-3" points="18.12 33.48 18.12 33.12 15.23 34.79 15.23 35.16 18.12 33.48"/><polygon class="cls-2" points="15.23 34.79 15.23 35.16 12.22 33.42 12.22 33.06 15.23 34.79"/><polygon class="cls-7" points="3.03 7 21.37 17.62 21.7 17.43 3.35 6.81 3.03 7"/><polygon class="cls-7" points="11.67 1.86 38.63 17.43 38.92 17.22 11.99 1.68 11.67 1.86"/><polygon class="cls-6" points="11.67 2.22 38.26 17.58 38.57 17.4 11.67 1.86 11.67 2.22"/><polygon class="cls-9" points="20.76 15.91 23.16 17.3 23.63 17.02 21.23 15.64 20.76 15.91"/><polygon class="cls-9" points="21.72 15.29 24.12 16.68 24.59 16.41 22.19 15.02 21.72 15.29"/><polygon class="cls-9" points="22.68 14.68 25.08 16.06 25.55 15.79 23.15 14.4 22.68 14.68"/><polygon class="cls-9" points="23.64 14.06 26.05 15.44 26.51 15.17 24.11 13.79 23.64 14.06"/><polygon class="cls-9" points="24.6 13.44 27.01 14.82 27.48 14.55 25.07 13.17 24.6 13.44"/><polygon class="cls-9" points="25.57 12.82 27.97 14.21 28.44 13.94 26.04 12.55 25.57 12.82"/><polygon class="cls-9" points="26.53 12.2 28.93 13.59 29.4 13.32 27 11.93 26.53 12.2"/><polygon class="cls-9" points="29.57 21.91 27.17 23.3 26.7 23.03 29.1 21.64 29.57 21.91"/><polygon class="cls-9" points="28.61 21.3 26.21 22.68 25.74 22.41 28.14 21.02 28.61 21.3"/><polygon class="cls-9" points="27.65 20.68 25.25 22.07 24.78 21.79 27.18 20.41 27.65 20.68"/><polygon class="cls-9" points="26.69 20.06 24.28 21.45 23.82 21.18 26.22 19.79 26.69 20.06"/><polygon class="cls-9" points="25.73 19.44 23.32 20.83 22.85 20.56 25.25 19.17 25.73 19.44"/><polygon class="cls-9" points="24.76 18.83 22.36 20.21 21.89 19.94 24.29 18.55 24.76 18.83"/><polygon class="cls-9" points="23.8 18.21 21.4 19.59 20.93 19.32 23.33 17.94 23.8 18.21"/></svg>