<svg id="Слой_1" data-name="Слой 1" xmlns="http://www.w3.org/2000/svg" viewBox="0 0 30.01 17.71"><defs><style>.cls-1{fill:#ccc;}.cls-2{fill:#b8bbb2;}.cls-3{fill:#6d6d69;}.cls-4{fill:#464749;}.cls-5{fill:#eae5df;}.cls-6{fill:#e5cd65;}.cls-7{fill:#b26000;}.cls-8{fill:#f3bb44;}.cls-9{fill:#836e1f;}</style></defs><polygon class="cls-1" points="12.1 1.74 14.99 3.49 18.01 1.75 18.01 1.68 15.12 0 12.1 1.74"/><polygon class="cls-2" points="12.1 2.1 12.1 1.74 14.99 3.41 14.99 3.79 12.1 2.1"/><polygon class="cls-3" points="14.99 3.41 14.99 3.79 18.01 2.04 18.01 1.68 14.99 3.41"/><polygon class="cls-1" points="15.1 3.48 17.99 5.23 21.01 3.49 21.01 3.42 18.12 1.74 15.1 3.48"/><polygon class="cls-2" points="15.1 3.84 15.1 3.48 17.99 5.15 17.99 5.52 15.1 3.84"/><polygon class="cls-3" points="17.99 5.15 17.99 5.52 21.01 3.78 21.01 3.42 17.99 5.15"/><polygon class="cls-1" points="18.1 5.22 20.99 6.97 24.01 5.23 24.01 5.16 21.12 3.48 18.1 5.22"/><polygon class="cls-2" points="18.1 5.58 18.1 5.21 20.99 6.89 20.99 7.26 18.1 5.58"/><polygon class="cls-3" points="20.99 6.89 20.99 7.26 24.01 5.52 24.01 5.16 20.99 6.89"/><polygon class="cls-1" points="21.11 6.96 23.99 8.71 27.01 6.96 27.01 6.89 24.12 5.21 21.11 6.96"/><polygon class="cls-2" points="21.11 7.32 21.11 6.95 23.99 8.63 23.99 9 21.11 7.32"/><polygon class="cls-3" points="23.99 8.63 23.99 9 27.01 7.26 27.01 6.89 23.99 8.63"/><polygon class="cls-1" points="24.11 8.7 26.99 10.45 30.01 8.7 30.01 8.63 27.12 6.95 24.11 8.7"/><polygon class="cls-2" points="24.11 9.05 24.11 8.69 26.99 10.37 26.99 10.74 24.11 9.05"/><polygon class="cls-3" points="26.99 10.37 26.99 10.74 30.01 9 30.01 8.63 26.99 10.37"/><polygon class="cls-4" points="3.24 6.88 18.24 15.57 18.39 15.49 21.41 13.74 22.68 13.01 22.83 12.93 22.9 12.88 22.91 12.88 23.05 12.79 23.05 12.79 24.34 12.05 26.51 10.78 26.66 10.7 11.48 2.12 3.24 6.88"/><polygon class="cls-5" points="8.05 4.11 7.9 4.19 7.83 4.24 7.67 4.33 3.53 6.71 3.39 6.8 18.39 15.49 21.41 13.74 21.59 13.63 21.6 13.63 21.61 13.62 22.65 13 22.65 13 22.8 12.91 22.8 12.91 22.8 12.91 22.88 12.87 22.88 12.87 23.02 12.78 23.03 12.78 24.14 12.16 24.2 12.13 24.34 12.05 26.52 10.78 11.67 2.22 11.48 2.12 8.05 4.11"/><polygon class="cls-4" points="3.53 6.71 18.51 15.39 18.53 15.4 22.67 13.01 22.82 12.93 22.9 12.88 23.05 12.79 23.05 12.79 26.41 10.84 26.39 10.83 11.41 2.15 8.05 4.11 8.05 4.11 7.9 4.19 7.83 4.24 7.68 4.33 3.53 6.71"/><polygon class="cls-6" points="7.9 4.19 22.88 12.87 22.9 12.88 22.9 12.88 22.91 12.88 23.05 12.79 23.05 12.79 23.05 12.79 23.03 12.78 8.05 4.11 8.05 4.11 7.9 4.19"/><polygon class="cls-6" points="7.68 4.33 22.65 13 22.67 13.01 22.68 13.02 22.82 12.93 22.82 12.93 22.82 12.93 22.8 12.91 7.83 4.24 7.68 4.33"/><polygon class="cls-7" points="11.67 2.22 26.67 10.91 27 10.52 27 10.52 26.99 10.52 17.94 5.3 17.94 5.3 17.94 5.3 17.89 5.33 11.67 1.86 11.67 2.22"/><polygon class="cls-8" points="11.67 1.86 26.67 10.55 26.67 10.55 26.99 10.37 26.99 10.36 26.99 10.36 11.99 1.68 11.67 1.86"/><polygon class="cls-9" points="26.99 10.36 26.67 10.55 26.67 10.91 27 10.74 26.99 10.36"/><polygon class="cls-7" points="2.86 7.25 17.91 15.97 18.24 15.58 18.24 15.57 18.24 15.57 9.19 10.35 9.18 10.35 9.18 10.35 9.13 10.38 2.94 6.93 2.86 7.25"/><polygon class="cls-8" points="2.91 6.91 17.91 15.6 17.91 15.6 18.24 15.42 18.23 15.42 18.23 15.42 3.24 6.73 2.91 6.91"/><polygon class="cls-9" points="18.23 15.42 17.91 15.6 17.91 15.97 18.24 15.78 18.23 15.42"/><polygon class="cls-1" points="0 8.71 2.89 10.46 5.9 8.72 5.9 8.65 3.02 6.97 0 8.71"/><polygon class="cls-2" points="0 9.07 0 8.7 2.89 10.38 2.89 10.75 0 9.07"/><polygon class="cls-3" points="2.89 10.38 2.89 10.75 5.91 9.01 5.91 8.65 2.89 10.38"/><polygon class="cls-1" points="3 10.45 5.89 12.2 8.91 10.46 8.91 10.39 6.02 8.71 3 10.45"/><polygon class="cls-2" points="3 10.81 3 10.44 5.89 12.12 5.89 12.49 3 10.81"/><polygon class="cls-3" points="5.89 12.12 5.89 12.49 8.91 10.75 8.91 10.38 5.89 12.12"/><polygon class="cls-1" points="6 12.19 8.89 13.94 11.91 12.2 11.91 12.12 9.02 10.44 6 12.19"/><polygon class="cls-2" points="6 12.54 6 12.18 8.89 13.86 8.89 14.23 6 12.54"/><polygon class="cls-3" points="8.89 13.86 8.89 14.23 11.91 12.49 11.91 12.12 8.89 13.86"/><polygon class="cls-1" points="9 13.93 11.89 15.67 14.91 13.93 14.91 13.86 12.02 12.18 9 13.93"/><polygon class="cls-2" points="9 14.28 9 13.92 11.89 15.59 11.89 15.97 9 14.28"/><polygon class="cls-3" points="11.89 15.59 11.89 15.97 14.91 14.23 14.91 13.86 11.89 15.59"/><polygon class="cls-1" points="12.01 15.66 14.89 17.41 17.91 15.67 17.91 15.6 15.02 13.92 12.01 15.66"/><polygon class="cls-2" points="12.01 16.02 12.01 15.66 14.89 17.33 14.89 17.71 12.01 16.02"/><polygon class="cls-3" points="14.89 17.33 14.89 17.71 17.91 15.96 17.91 15.6 14.89 17.33"/></svg>