<svg id="Слой_1" data-name="Слой 1" xmlns="http://www.w3.org/2000/svg" viewBox="0 0 30.01 17.71"><defs><style>.cls-1{fill:#ccc;}.cls-2{fill:#b8bbb2;}.cls-3{fill:#6d6d69;}.cls-4{fill:#464749;}.cls-5{fill:#eae5df;}.cls-6{fill:#e5cd65;}.cls-7{fill:#b26000;}.cls-8{fill:#f3bb44;}.cls-9{fill:#836e1f;}</style></defs><polygon class="cls-1" points="17.91 1.74 15.02 3.49 12.01 1.75 12.01 1.68 14.89 0 17.91 1.74"/><polygon class="cls-2" points="17.91 2.1 17.91 1.74 15.02 3.41 15.02 3.79 17.91 2.1"/><polygon class="cls-3" points="15.02 3.41 15.02 3.79 12.01 2.04 12.01 1.68 15.02 3.41"/><polygon class="cls-1" points="14.91 3.48 12.02 5.23 9 3.49 9 3.42 11.89 1.74 14.91 3.48"/><polygon class="cls-2" points="14.91 3.84 14.91 3.48 12.02 5.15 12.02 5.52 14.91 3.84"/><polygon class="cls-3" points="12.02 5.15 12.02 5.52 9 3.78 9 3.42 12.02 5.15"/><polygon class="cls-1" points="11.91 5.22 9.02 6.97 6 5.23 6 5.16 8.89 3.48 11.91 5.22"/><polygon class="cls-2" points="11.91 5.58 11.91 5.21 9.02 6.89 9.02 7.26 11.91 5.58"/><polygon class="cls-3" points="9.02 6.89 9.02 7.26 6 5.52 6 5.16 9.02 6.89"/><polygon class="cls-1" points="8.91 6.96 6.02 8.71 3 6.96 3 6.89 5.89 5.21 8.91 6.96"/><polygon class="cls-2" points="8.91 7.32 8.91 6.95 6.02 8.63 6.02 9 8.91 7.32"/><polygon class="cls-3" points="6.02 8.63 6.02 9 3 7.26 3 6.89 6.02 8.63"/><polygon class="cls-1" points="5.91 8.7 3.02 10.45 0 8.7 0 8.63 2.89 6.95 5.91 8.7"/><polygon class="cls-2" points="5.91 9.05 5.91 8.69 3.02 10.37 3.02 10.74 5.91 9.05"/><polygon class="cls-3" points="3.02 10.37 3.02 10.74 0 9 0 8.63 3.02 10.37"/><polygon class="cls-4" points="26.77 6.88 11.77 15.57 11.62 15.49 8.6 13.74 7.34 13.01 7.18 12.93 7.11 12.88 7.11 12.88 6.96 12.79 6.96 12.79 5.67 12.05 3.5 10.78 3.35 10.7 18.53 2.12 26.77 6.88"/><polygon class="cls-5" points="21.96 4.11 22.11 4.19 22.19 4.24 22.34 4.33 26.48 6.71 26.62 6.8 11.62 15.49 8.6 13.74 8.42 13.63 8.41 13.63 8.4 13.62 7.37 13 7.36 13 7.21 12.91 7.21 12.91 7.21 12.91 7.13 12.87 7.13 12.87 6.99 12.78 6.98 12.78 5.87 12.16 5.81 12.13 5.67 12.05 3.5 10.78 18.34 2.22 18.53 2.12 21.96 4.11"/><polygon class="cls-4" points="26.48 6.71 11.5 15.39 11.48 15.4 7.34 13.01 7.19 12.93 7.11 12.88 6.96 12.79 6.96 12.79 3.6 10.84 3.62 10.83 18.6 2.15 21.96 4.11 21.96 4.11 22.11 4.19 22.18 4.24 22.34 4.33 26.48 6.71"/><polygon class="cls-6" points="22.11 4.19 7.13 12.87 7.11 12.88 7.11 12.88 7.11 12.88 6.96 12.79 6.96 12.79 6.96 12.79 6.98 12.78 21.96 4.11 21.96 4.11 22.11 4.19"/><polygon class="cls-6" points="22.34 4.33 7.36 13 7.34 13.01 7.34 13.02 7.19 12.93 7.19 12.93 7.19 12.93 7.21 12.91 22.18 4.24 22.34 4.33"/><polygon class="cls-7" points="18.34 2.22 3.34 10.91 3.02 10.52 3.02 10.52 3.02 10.52 12.07 5.3 12.07 5.3 12.07 5.3 12.12 5.33 18.34 1.86 18.34 2.22"/><polygon class="cls-8" points="18.34 1.86 3.34 10.55 3.34 10.55 3.02 10.37 3.02 10.36 3.02 10.36 18.02 1.68 18.34 1.86"/><polygon class="cls-9" points="3.02 10.36 3.34 10.55 3.34 10.91 3.02 10.74 3.02 10.36"/><polygon class="cls-7" points="27.16 7.25 12.1 15.97 11.77 15.58 11.77 15.57 11.78 15.57 20.82 10.35 20.83 10.35 20.83 10.35 20.88 10.38 27.07 6.93 27.16 7.25"/><polygon class="cls-8" points="27.1 6.91 12.1 15.6 12.1 15.6 11.77 15.42 11.78 15.42 11.78 15.42 26.77 6.73 27.1 6.91"/><polygon class="cls-9" points="11.78 15.42 12.1 15.6 12.1 15.97 11.77 15.78 11.78 15.42"/><polygon class="cls-1" points="30.01 8.71 27.12 10.46 24.11 8.72 24.11 8.65 26.99 6.97 30.01 8.71"/><polygon class="cls-2" points="30.01 9.07 30.01 8.7 27.12 10.38 27.12 10.75 30.01 9.07"/><polygon class="cls-3" points="27.12 10.38 27.12 10.75 24.11 9.01 24.11 8.65 27.12 10.38"/><polygon class="cls-1" points="27.01 10.45 24.12 12.2 21.11 10.46 21.11 10.39 23.99 8.71 27.01 10.45"/><polygon class="cls-2" points="27.01 10.81 27.01 10.44 24.12 12.12 24.12 12.49 27.01 10.81"/><polygon class="cls-3" points="24.12 12.12 24.12 12.49 21.11 10.75 21.11 10.38 24.12 12.12"/><polygon class="cls-1" points="24.01 12.19 21.12 13.94 18.1 12.2 18.1 12.12 20.99 10.44 24.01 12.19"/><polygon class="cls-2" points="24.01 12.54 24.01 12.18 21.12 13.86 21.12 14.23 24.01 12.54"/><polygon class="cls-3" points="21.12 13.86 21.12 14.23 18.1 12.49 18.1 12.12 21.12 13.86"/><polygon class="cls-1" points="21.01 13.93 18.12 15.67 15.1 13.93 15.1 13.86 17.99 12.18 21.01 13.93"/><polygon class="cls-2" points="21.01 14.28 21.01 13.92 18.12 15.59 18.12 15.97 21.01 14.28"/><polygon class="cls-3" points="18.12 15.59 18.12 15.97 15.1 14.23 15.1 13.86 18.12 15.59"/><polygon class="cls-1" points="18.01 15.66 15.12 17.41 12.1 15.67 12.1 15.6 14.99 13.92 18.01 15.66"/><polygon class="cls-2" points="18.01 16.02 18.01 15.66 15.12 17.33 15.12 17.71 18.01 16.02"/><polygon class="cls-3" points="15.12 17.33 15.12 17.71 12.1 15.96 12.1 15.6 15.12 17.33"/></svg>